<?xml version="1.0" encoding="UTF-8" standalone="no"?><svg xmlns="http://www.w3.org/2000/svg" xmlns:xlink="http://www.w3.org/1999/xlink" contentScriptType="application/ecmascript" contentStyleType="text/css" height="880px" preserveAspectRatio="none" style="width:1293px;height:880px;background:#FFFFFF;" version="1.1" viewBox="0 0 1293 880" width="1293px" zoomAndPan="magnify"><defs><filter height="300%" id="f1l7kg1phq6t63" width="300%" x="-1" y="-1"><feGaussianBlur result="blurOut" stdDeviation="2.0"/><feColorMatrix in="blurOut" result="blurOut2" type="matrix" values="0 0 0 0 0 0 0 0 0 0 0 0 0 0 0 0 0 0 .4 0"/><feOffset dx="4.0" dy="4.0" in="blurOut2" result="blurOut3"/><feBlend in="SourceGraphic" in2="blurOut3" mode="normal"/></filter></defs><g><rect fill="#FEFECE" filter="url(#f1l7kg1phq6t63)" height="36.2969" rx="12.5" ry="12.5" style="stroke:#A80036;stroke-width:1.5;" width="46" x="537" y="421.1211"/><text fill="#000000" font-family="sans-serif" font-size="14" lengthAdjust="spacing" textLength="26" x="547" y="444.1162">Java</text><rect fill="#FEFECE" filter="url(#f1l7kg1phq6t63)" height="36.2969" rx="12.5" ry="12.5" style="stroke:#A80036;stroke-width:1.5;" width="96" x="633" y="300.7852"/><text fill="#000000" font-family="sans-serif" font-size="14" lengthAdjust="spacing" textLength="76" x="643" y="323.7803">并发 &amp; 同步</text><rect fill="#FEFECE" filter="url(#f1l7kg1phq6t63)" height="36.2969" rx="12.5" ry="12.5" style="stroke:#A80036;stroke-width:1.5;" width="113" x="779" y="20"/><text fill="#000000" font-family="sans-serif" font-size="14" lengthAdjust="spacing" textLength="93" x="789" y="42.9951">synchronized</text><text fill="#000000" font-family="sans-serif" font-size="14" lengthAdjust="spacing" textLength="154" x="945" y="33.8467">原理，可重入性，可见性</text><path d="M892,38.1484 L902,38.1484 C917,38.1484 917,29 932,29 L942,29 " fill="none" style="stroke:#A80036;stroke-width:1.0;"/><text fill="#000000" font-family="sans-serif" font-size="14" lengthAdjust="spacing" textLength="42" x="945" y="52.1436">锁升级</text><path d="M892,38.1484 L902,38.1484 C917,38.1484 917,47.2969 932,47.2969 L942,47.2969 " fill="none" style="stroke:#A80036;stroke-width:1.0;"/><path d="M729,318.9336 L739,318.9336 C754,318.9336 754,38.1484 769,38.1484 L779,38.1484 " fill="none" style="stroke:#A80036;stroke-width:1.0;"/><rect fill="#FEFECE" filter="url(#f1l7kg1phq6t63)" height="36.2969" rx="12.5" ry="12.5" style="stroke:#A80036;stroke-width:1.5;" width="67" x="779" y="76.2969"/><text fill="#000000" font-family="sans-serif" font-size="14" lengthAdjust="spacing" textLength="47" x="789" y="99.292">volatile</text><text fill="#000000" font-family="sans-serif" font-size="14" lengthAdjust="spacing" textLength="42" x="899" y="90.1436">可见性</text><path d="M846,94.4453 L856,94.4453 C871,94.4453 871,85.2969 886,85.2969 L896,85.2969 " fill="none" style="stroke:#A80036;stroke-width:1.0;"/><text fill="#000000" font-family="sans-serif" font-size="14" lengthAdjust="spacing" textLength="56" x="899" y="108.4404">内存屏障</text><path d="M846,94.4453 L856,94.4453 C871,94.4453 871,103.5938 886,103.5938 L896,103.5938 " fill="none" style="stroke:#A80036;stroke-width:1.0;"/><path d="M729,318.9336 L739,318.9336 C754,318.9336 754,94.4453 769,94.4453 L779,94.4453 " fill="none" style="stroke:#A80036;stroke-width:1.0;"/><rect fill="#FEFECE" filter="url(#f1l7kg1phq6t63)" height="36.2969" rx="12.5" ry="12.5" style="stroke:#A80036;stroke-width:1.5;" width="34" x="779" y="229.0039"/><text fill="#000000" font-family="sans-serif" font-size="14" lengthAdjust="spacing" textLength="14" x="789" y="251.999">锁</text><rect fill="#FEFECE" filter="url(#f1l7kg1phq6t63)" height="36.2969" rx="12.5" ry="12.5" style="stroke:#A80036;stroke-width:1.5;" width="62" x="863" y="132.5938"/><text fill="#000000" font-family="sans-serif" font-size="14" lengthAdjust="spacing" textLength="42" x="873" y="155.5889">锁升级</text><text fill="#000000" font-family="sans-serif" font-size="14" lengthAdjust="spacing" textLength="42" x="978" y="137.292">偏向锁</text><path d="M925,150.7422 L935,150.7422 C950,150.7422 950,132.4453 965,132.4453 L975,132.4453 " fill="none" style="stroke:#A80036;stroke-width:1.0;"/><text fill="#000000" font-family="sans-serif" font-size="14" lengthAdjust="spacing" textLength="56" x="978" y="155.5889">轻量级锁</text><path d="M925,150.7422 L935,150.7422 C950,150.7422 950,150.7422 965,150.7422 L975,150.7422 " fill="none" style="stroke:#A80036;stroke-width:1.0;"/><text fill="#000000" font-family="sans-serif" font-size="14" lengthAdjust="spacing" textLength="56" x="978" y="173.8857">重量级锁</text><path d="M925,150.7422 L935,150.7422 C950,150.7422 950,169.0391 965,169.0391 L975,169.0391 " fill="none" style="stroke:#A80036;stroke-width:1.0;"/><path d="M813,247.1523 L823,247.1523 C838,247.1523 838,150.7422 853,150.7422 L863,150.7422 " fill="none" style="stroke:#A80036;stroke-width:1.0;"/><text fill="#000000" font-family="sans-serif" font-size="14" lengthAdjust="spacing" textLength="28" x="866" y="192.8857">乐观</text><path d="M813,247.1523 L823,247.1523 C838,247.1523 838,188.0391 853,188.0391 L863,188.0391 " fill="none" style="stroke:#A80036;stroke-width:1.0;"/><text fill="#000000" font-family="sans-serif" font-size="14" lengthAdjust="spacing" textLength="28" x="866" y="211.1826">悲观</text><path d="M813,247.1523 L823,247.1523 C838,247.1523 838,206.3359 853,206.3359 L863,206.3359 " fill="none" style="stroke:#A80036;stroke-width:1.0;"/><text fill="#000000" font-family="sans-serif" font-size="14" lengthAdjust="spacing" textLength="28" x="866" y="229.4795">CAS</text><path d="M813,247.1523 L823,247.1523 C838,247.1523 838,224.6328 853,224.6328 L863,224.6328 " fill="none" style="stroke:#A80036;stroke-width:1.0;"/><rect fill="#FEFECE" filter="url(#f1l7kg1phq6t63)" height="36.2969" rx="12.5" ry="12.5" style="stroke:#A80036;stroke-width:1.5;" width="48" x="863" y="243.7813"/><text fill="#000000" font-family="sans-serif" font-size="14" lengthAdjust="spacing" textLength="28" x="873" y="266.7764">死锁</text><text fill="#000000" font-family="sans-serif" font-size="14" lengthAdjust="spacing" textLength="56" x="964" y="257.6279">产生条件</text><path d="M911,261.9297 L921,261.9297 C936,261.9297 936,252.7813 951,252.7813 L961,252.7813 " fill="none" style="stroke:#A80036;stroke-width:1.0;"/><text fill="#000000" font-family="sans-serif" font-size="14" lengthAdjust="spacing" textLength="28" x="964" y="275.9248">排查</text><path d="M911,261.9297 L921,261.9297 C936,261.9297 936,271.0781 951,271.0781 L961,271.0781 " fill="none" style="stroke:#A80036;stroke-width:1.0;"/><path d="M813,247.1523 L823,247.1523 C838,247.1523 838,261.9297 853,261.9297 L863,261.9297 " fill="none" style="stroke:#A80036;stroke-width:1.0;"/><rect fill="#FEFECE" filter="url(#f1l7kg1phq6t63)" height="36.2969" rx="12.5" ry="12.5" style="stroke:#A80036;stroke-width:1.5;" width="112" x="863" y="307.8203"/><text fill="#000000" font-family="sans-serif" font-size="14" lengthAdjust="spacing" textLength="92" x="873" y="330.8154">reentrantlock</text><text fill="#000000" font-family="sans-serif" font-size="14" lengthAdjust="spacing" textLength="224" x="1028" y="294.2217">实现原理，加锁和释放锁的一个过程</text><path d="M975,325.9688 L985,325.9688 C1000,325.9688 1000,289.375 1015,289.375 L1025,289.375 " fill="none" style="stroke:#A80036;stroke-width:1.0;"/><text fill="#000000" font-family="sans-serif" font-size="14" lengthAdjust="spacing" textLength="25" x="1028" y="312.5186">aqs</text><path d="M975,325.9688 L985,325.9688 C1000,325.9688 1000,307.6719 1015,307.6719 L1025,307.6719 " fill="none" style="stroke:#A80036;stroke-width:1.0;"/><text fill="#000000" font-family="sans-serif" font-size="14" lengthAdjust="spacing" textLength="84" x="1028" y="330.8154">公平和非公平</text><path d="M975,325.9688 L985,325.9688 C1000,325.9688 1000,325.9688 1015,325.9688 L1025,325.9688 " fill="none" style="stroke:#A80036;stroke-width:1.0;"/><text fill="#000000" font-family="sans-serif" font-size="14" lengthAdjust="spacing" textLength="42" x="1028" y="349.1123">可重入</text><path d="M975,325.9688 L985,325.9688 C1000,325.9688 1000,344.2656 1015,344.2656 L1025,344.2656 " fill="none" style="stroke:#A80036;stroke-width:1.0;"/><text fill="#000000" font-family="sans-serif" font-size="14" lengthAdjust="spacing" textLength="42" x="1028" y="367.4092">可中断</text><path d="M975,325.9688 L985,325.9688 C1000,325.9688 1000,362.5625 1015,362.5625 L1025,362.5625 " fill="none" style="stroke:#A80036;stroke-width:1.0;"/><path d="M813,247.1523 L823,247.1523 C838,247.1523 838,325.9688 853,325.9688 L863,325.9688 " fill="none" style="stroke:#A80036;stroke-width:1.0;"/><path d="M729,318.9336 L739,318.9336 C754,318.9336 754,247.1523 769,247.1523 L779,247.1523 " fill="none" style="stroke:#A80036;stroke-width:1.0;"/><rect fill="#FEFECE" filter="url(#f1l7kg1phq6t63)" height="36.2969" rx="12.5" ry="12.5" style="stroke:#A80036;stroke-width:1.5;" width="90" x="779" y="481.6406"/><text fill="#000000" font-family="sans-serif" font-size="14" lengthAdjust="spacing" textLength="70" x="789" y="504.6357">并发工具类</text><rect fill="#FEFECE" filter="url(#f1l7kg1phq6t63)" height="36.2969" rx="12.5" ry="12.5" style="stroke:#A80036;stroke-width:1.5;" width="160" x="919" y="390.1563"/><text fill="#000000" font-family="sans-serif" font-size="14" lengthAdjust="spacing" textLength="140" x="929" y="413.1514">concurrenthashmap</text><text fill="#000000" font-family="sans-serif" font-size="14" lengthAdjust="spacing" textLength="126" x="1132" y="385.7061">怎么保证线程安全的</text><path d="M1079,408.3047 L1089,408.3047 C1104,408.3047 1104,380.8594 1119,380.8594 L1129,380.8594 " fill="none" style="stroke:#A80036;stroke-width:1.0;"/><text fill="#000000" font-family="sans-serif" font-size="14" lengthAdjust="spacing" textLength="149" x="1132" y="404.0029">为什么用synchronized</text><path d="M1079,408.3047 L1089,408.3047 C1104,408.3047 1104,399.1563 1119,399.1563 L1129,399.1563 " fill="none" style="stroke:#A80036;stroke-width:1.0;"/><text fill="#000000" font-family="sans-serif" font-size="14" lengthAdjust="spacing" textLength="112" x="1132" y="422.2998">分段锁有什么问题</text><path d="M1079,408.3047 L1089,408.3047 C1104,408.3047 1104,417.4531 1119,417.4531 L1129,417.4531 " fill="none" style="stroke:#A80036;stroke-width:1.0;"/><text fill="#000000" font-family="sans-serif" font-size="14" lengthAdjust="spacing" textLength="146" x="1132" y="440.5967">hash算法做了哪些优化</text><path d="M1079,408.3047 L1089,408.3047 C1104,408.3047 1104,435.75 1119,435.75 L1129,435.75 " fill="none" style="stroke:#A80036;stroke-width:1.0;"/><path d="M869,499.7891 L879,499.7891 C894,499.7891 894,408.3047 909,408.3047 L919,408.3047 " fill="none" style="stroke:#A80036;stroke-width:1.0;"/><rect fill="#FEFECE" filter="url(#f1l7kg1phq6t63)" height="36.2969" rx="12.5" ry="12.5" style="stroke:#A80036;stroke-width:1.5;" width="96" x="919" y="472.4922"/><text fill="#000000" font-family="sans-serif" font-size="14" lengthAdjust="spacing" textLength="76" x="929" y="495.4873">threadlocal</text><text fill="#000000" font-family="sans-serif" font-size="14" lengthAdjust="spacing" textLength="112" x="1068" y="458.8936">什么场景下使用的</text><path d="M1015,490.6406 L1025,490.6406 C1040,490.6406 1040,454.0469 1055,454.0469 L1065,454.0469 " fill="none" style="stroke:#A80036;stroke-width:1.0;"/><text fill="#000000" font-family="sans-serif" font-size="14" lengthAdjust="spacing" textLength="28" x="1068" y="477.1904">原理</text><path d="M1015,490.6406 L1025,490.6406 C1040,490.6406 1040,472.3438 1055,472.3438 L1065,472.3438 " fill="none" style="stroke:#A80036;stroke-width:1.0;"/><text fill="#000000" font-family="sans-serif" font-size="14" lengthAdjust="spacing" textLength="104" x="1068" y="495.4873">hash冲突怎么办</text><path d="M1015,490.6406 L1025,490.6406 C1040,490.6406 1040,490.6406 1055,490.6406 L1065,490.6406 " fill="none" style="stroke:#A80036;stroke-width:1.0;"/><text fill="#000000" font-family="sans-serif" font-size="14" lengthAdjust="spacing" textLength="56" x="1068" y="513.7842">扩容实现</text><path d="M1015,490.6406 L1025,490.6406 C1040,490.6406 1040,508.9375 1055,508.9375 L1065,508.9375 " fill="none" style="stroke:#A80036;stroke-width:1.0;"/><text fill="#000000" font-family="sans-serif" font-size="14" lengthAdjust="spacing" textLength="182" x="1068" y="532.0811">内存泄漏产生原因，怎么解决</text><path d="M1015,490.6406 L1025,490.6406 C1040,490.6406 1040,527.2344 1055,527.2344 L1065,527.2344 " fill="none" style="stroke:#A80036;stroke-width:1.0;"/><path d="M869,499.7891 L879,499.7891 C894,499.7891 894,490.6406 909,490.6406 L919,490.6406 " fill="none" style="stroke:#A80036;stroke-width:1.0;"/><rect fill="#FEFECE" filter="url(#f1l7kg1phq6t63)" height="36.2969" rx="12.5" ry="12.5" style="stroke:#A80036;stroke-width:1.5;" width="62" x="919" y="563.9766"/><text fill="#000000" font-family="sans-serif" font-size="14" lengthAdjust="spacing" textLength="42" x="929" y="586.9717">线程池</text><text fill="#000000" font-family="sans-serif" font-size="14" lengthAdjust="spacing" textLength="28" x="1034" y="550.3779">原理</text><path d="M981,582.125 L991,582.125 C1006,582.125 1006,545.5313 1021,545.5313 L1031,545.5313 " fill="none" style="stroke:#A80036;stroke-width:1.0;"/><text fill="#000000" font-family="sans-serif" font-size="14" lengthAdjust="spacing" textLength="56" x="1034" y="568.6748">核心参数</text><path d="M981,582.125 L991,582.125 C1006,582.125 1006,563.8281 1021,563.8281 L1031,563.8281 " fill="none" style="stroke:#A80036;stroke-width:1.0;"/><text fill="#000000" font-family="sans-serif" font-size="14" lengthAdjust="spacing" textLength="70" x="1034" y="586.9717">线程数设置</text><path d="M981,582.125 L991,582.125 C1006,582.125 1006,582.125 1021,582.125 L1031,582.125 " fill="none" style="stroke:#A80036;stroke-width:1.0;"/><text fill="#000000" font-family="sans-serif" font-size="14" lengthAdjust="spacing" textLength="165" x="1034" y="605.2686">参数动态调整后变化过程 *</text><path d="M981,582.125 L991,582.125 C1006,582.125 1006,600.4219 1021,600.4219 L1031,600.4219 " fill="none" style="stroke:#A80036;stroke-width:1.0;"/><text fill="#000000" font-family="sans-serif" font-size="14" lengthAdjust="spacing" textLength="123" x="1034" y="623.5654">线程抛异常怎么办 *</text><path d="M981,582.125 L991,582.125 C1006,582.125 1006,618.7188 1021,618.7188 L1031,618.7188 " fill="none" style="stroke:#A80036;stroke-width:1.0;"/><path d="M869,499.7891 L879,499.7891 C894,499.7891 894,582.125 909,582.125 L919,582.125 " fill="none" style="stroke:#A80036;stroke-width:1.0;"/><path d="M729,318.9336 L739,318.9336 C754,318.9336 754,499.7891 769,499.7891 L779,499.7891 " fill="none" style="stroke:#A80036;stroke-width:1.0;"/><path d="M583,439.2695 L593,439.2695 C608,439.2695 608,318.9336 623,318.9336 L633,318.9336 " fill="none" style="stroke:#A80036;stroke-width:1.0;"/><rect fill="#FEFECE" filter="url(#f1l7kg1phq6t63)" height="36.2969" rx="12.5" ry="12.5" style="stroke:#A80036;stroke-width:1.5;" width="48" x="633" y="730.0547"/><text fill="#000000" font-family="sans-serif" font-size="14" lengthAdjust="spacing" textLength="28" x="643" y="753.0498">线程</text><rect fill="#FEFECE" filter="url(#f1l7kg1phq6t63)" height="36.2969" rx="12.5" ry="12.5" style="stroke:#A80036;stroke-width:1.5;" width="76" x="731" y="730.0547"/><text fill="#000000" font-family="sans-serif" font-size="14" lengthAdjust="spacing" textLength="56" x="741" y="753.0498">线程状态</text><text fill="#000000" font-family="sans-serif" font-size="14" lengthAdjust="spacing" textLength="32" x="860" y="641.8623">NEW</text><path d="M807,748.2031 L817,748.2031 C832,748.2031 832,637.0156 847,637.0156 L857,637.0156 " fill="none" style="stroke:#A80036;stroke-width:1.0;"/><text fill="#000000" font-family="sans-serif" font-size="14" lengthAdjust="spacing" textLength="75" x="860" y="660.1592">RUNNABLE</text><path d="M807,748.2031 L817,748.2031 C832,748.2031 832,655.3125 847,655.3125 L857,655.3125 " fill="none" style="stroke:#A80036;stroke-width:1.0;"/><rect fill="#FEFECE" filter="url(#f1l7kg1phq6t63)" height="36.2969" rx="12.5" ry="12.5" style="stroke:#A80036;stroke-width:1.5;" width="87" x="857" y="674.4609"/><text fill="#000000" font-family="sans-serif" font-size="14" lengthAdjust="spacing" textLength="67" x="867" y="697.4561">BLOCKED</text><text fill="#000000" font-family="sans-serif" font-size="14" lengthAdjust="spacing" textLength="188" x="997" y="688.3076">等待 montor lock 进入同步区</text><path d="M944,692.6094 L954,692.6094 C969,692.6094 969,683.4609 984,683.4609 L994,683.4609 " fill="none" style="stroke:#A80036;stroke-width:1.0;"/><text fill="#000000" font-family="sans-serif" font-size="14" lengthAdjust="spacing" textLength="230" x="997" y="706.6045">Object.wait() 后阻塞重新进入同步区</text><path d="M944,692.6094 L954,692.6094 C969,692.6094 969,701.7578 984,701.7578 L994,701.7578 " fill="none" style="stroke:#A80036;stroke-width:1.0;"/><path d="M807,748.2031 L817,748.2031 C832,748.2031 832,692.6094 847,692.6094 L857,692.6094 " fill="none" style="stroke:#A80036;stroke-width:1.0;"/><rect fill="#FEFECE" filter="url(#f1l7kg1phq6t63)" height="36.2969" rx="12.5" ry="12.5" style="stroke:#A80036;stroke-width:1.5;" width="78" x="857" y="730.7578"/><text fill="#000000" font-family="sans-serif" font-size="14" lengthAdjust="spacing" textLength="58" x="867" y="753.7529">WAITING</text><text fill="#000000" font-family="sans-serif" font-size="14" lengthAdjust="spacing" textLength="118" x="988" y="735.4561">无限 Object.wait()</text><path d="M935,748.9063 L945,748.9063 C960,748.9063 960,730.6094 975,730.6094 L985,730.6094 " fill="none" style="stroke:#A80036;stroke-width:1.0;"/><text fill="#000000" font-family="sans-serif" font-size="14" lengthAdjust="spacing" textLength="119" x="988" y="753.7529">无限 Thread.join()</text><path d="M935,748.9063 L945,748.9063 C960,748.9063 960,748.9063 975,748.9063 L985,748.9063 " fill="none" style="stroke:#A80036;stroke-width:1.0;"/><text fill="#000000" font-family="sans-serif" font-size="14" lengthAdjust="spacing" textLength="121" x="988" y="772.0498">LockSupport.park</text><path d="M935,748.9063 L945,748.9063 C960,748.9063 960,767.2031 975,767.2031 L985,767.2031 " fill="none" style="stroke:#A80036;stroke-width:1.0;"/><path d="M807,748.2031 L817,748.2031 C832,748.2031 832,748.9063 847,748.9063 L857,748.9063 " fill="none" style="stroke:#A80036;stroke-width:1.0;"/><rect fill="#FEFECE" filter="url(#f1l7kg1phq6t63)" height="36.2969" rx="12.5" ry="12.5" style="stroke:#A80036;stroke-width:1.5;" width="129" x="857" y="803.9453"/><text fill="#000000" font-family="sans-serif" font-size="14" lengthAdjust="spacing" textLength="109" x="867" y="826.9404">TIMED_WAITING</text><text fill="#000000" font-family="sans-serif" font-size="14" lengthAdjust="spacing" textLength="91" x="1039" y="790.3467">Thread.sleep</text><path d="M986,822.0938 L996,822.0938 C1011,822.0938 1011,785.5 1026,785.5 L1036,785.5 " fill="none" style="stroke:#A80036;stroke-width:1.0;"/><text fill="#000000" font-family="sans-serif" font-size="14" lengthAdjust="spacing" textLength="118" x="1039" y="808.6436">有限 Object.wait()</text><path d="M986,822.0938 L996,822.0938 C1011,822.0938 1011,803.7969 1026,803.7969 L1036,803.7969 " fill="none" style="stroke:#A80036;stroke-width:1.0;"/><text fill="#000000" font-family="sans-serif" font-size="14" lengthAdjust="spacing" textLength="119" x="1039" y="826.9404">有限 Thread.join()</text><path d="M986,822.0938 L996,822.0938 C1011,822.0938 1011,822.0938 1026,822.0938 L1036,822.0938 " fill="none" style="stroke:#A80036;stroke-width:1.0;"/><text fill="#000000" font-family="sans-serif" font-size="14" lengthAdjust="spacing" textLength="165" x="1039" y="845.2373">LockSupport.parkNanos</text><path d="M986,822.0938 L996,822.0938 C1011,822.0938 1011,840.3906 1026,840.3906 L1036,840.3906 " fill="none" style="stroke:#A80036;stroke-width:1.0;"/><text fill="#000000" font-family="sans-serif" font-size="14" lengthAdjust="spacing" textLength="151" x="1039" y="863.5342">LockSupport.parkUntil</text><path d="M986,822.0938 L996,822.0938 C1011,822.0938 1011,858.6875 1026,858.6875 L1036,858.6875 " fill="none" style="stroke:#A80036;stroke-width:1.0;"/><path d="M807,748.2031 L817,748.2031 C832,748.2031 832,822.0938 847,822.0938 L857,822.0938 " fill="none" style="stroke:#A80036;stroke-width:1.0;"/><text fill="#000000" font-family="sans-serif" font-size="14" lengthAdjust="spacing" textLength="91" x="860" y="864.2373">TERMINATED</text><path d="M807,748.2031 L817,748.2031 C832,748.2031 832,859.3906 847,859.3906 L857,859.3906 " fill="none" style="stroke:#A80036;stroke-width:1.0;"/><path d="M681,748.2031 L691,748.2031 C706,748.2031 706,748.2031 721,748.2031 L731,748.2031 " fill="none" style="stroke:#A80036;stroke-width:1.0;"/><text fill="#000000" font-family="sans-serif" font-size="14" lengthAdjust="spacing" textLength="69" x="734" y="790.3467">interrupt()</text><path d="M681,748.2031 L691,748.2031 C706,748.2031 706,785.5 721,785.5 L731,785.5 " fill="none" style="stroke:#A80036;stroke-width:1.0;"/><path d="M583,439.2695 L593,439.2695 C608,439.2695 608,748.2031 623,748.2031 L633,748.2031 " fill="none" style="stroke:#A80036;stroke-width:1.0;"/><rect fill="#FEFECE" filter="url(#f1l7kg1phq6t63)" height="36.2969" rx="12.5" ry="12.5" style="stroke:#A80036;stroke-width:1.5;" width="48" x="439" y="336.6758"/><text fill="#000000" font-family="sans-serif" font-size="14" lengthAdjust="spacing" textLength="28" x="449" y="359.6709">集合</text><rect fill="#FEFECE" filter="url(#f1l7kg1phq6t63)" height="36.2969" rx="12.5" ry="12.5" style="stroke:#A80036;stroke-width:1.5;" width="84" x="305" y="313.4531"/><text fill="#000000" font-family="sans-serif" font-size="14" lengthAdjust="spacing" textLength="64" x="315" y="336.4482">hashmap</text><text fill="#000000" font-family="sans-serif" font-size="14" lengthAdjust="spacing" textLength="102" x="150" y="299.8545">原理, put &amp; get</text><path d="M305,331.6016 L295,331.6016 C280,331.6016 280,295.0078 265,295.0078 L255,295.0078 " fill="none" style="stroke:#A80036;stroke-width:1.0;"/><text fill="#000000" font-family="sans-serif" font-size="14" lengthAdjust="spacing" textLength="72" x="180" y="318.1514">8转红黑树?</text><path d="M305,331.6016 L295,331.6016 C280,331.6016 280,313.3047 265,313.3047 L255,313.3047 " fill="none" style="stroke:#A80036;stroke-width:1.0;"/><text fill="#000000" font-family="sans-serif" font-size="14" lengthAdjust="spacing" textLength="140" x="112" y="336.4482">什么时候扩容? 0.75？</text><path d="M305,331.6016 L295,331.6016 C280,331.6016 280,331.6016 265,331.6016 L255,331.6016 " fill="none" style="stroke:#A80036;stroke-width:1.0;"/><text fill="#000000" font-family="sans-serif" font-size="14" lengthAdjust="spacing" textLength="168" x="84" y="354.7451">扩容步骤，为什么分高低位</text><path d="M305,331.6016 L295,331.6016 C280,331.6016 280,349.8984 265,349.8984 L255,349.8984 " fill="none" style="stroke:#A80036;stroke-width:1.0;"/><text fill="#000000" font-family="sans-serif" font-size="14" lengthAdjust="spacing" textLength="238" x="10" y="373.042">头插法有什么问题，为什么线程不安全</text><path d="M305,331.6016 L295,331.6016 C280,331.6016 280,368.1953 265,368.1953 L255,368.1953 " fill="none" style="stroke:#A80036;stroke-width:1.0;"/><path d="M439,354.8242 L429,354.8242 C414,354.8242 414,331.6016 399,331.6016 L389,331.6016 " fill="none" style="stroke:#A80036;stroke-width:1.0;"/><rect fill="#FEFECE" filter="url(#f1l7kg1phq6t63)" height="36.2969" rx="12.5" ry="12.5" style="stroke:#A80036;stroke-width:1.5;" width="72" x="317" y="377.4922"/><text fill="#000000" font-family="sans-serif" font-size="14" lengthAdjust="spacing" textLength="52" x="327" y="400.4873">arraylist</text><text fill="#000000" font-family="sans-serif" font-size="14" lengthAdjust="spacing" textLength="103" x="161" y="391.3389">数组加transient</text><path d="M317,395.6406 L307,395.6406 C292,395.6406 292,386.4922 277,386.4922 L267,386.4922 " fill="none" style="stroke:#A80036;stroke-width:1.0;"/><text fill="#000000" font-family="sans-serif" font-size="14" lengthAdjust="spacing" textLength="56" x="208" y="409.6357">扩容原理</text><path d="M317,395.6406 L307,395.6406 C292,395.6406 292,404.7891 277,404.7891 L267,404.7891 " fill="none" style="stroke:#A80036;stroke-width:1.0;"/><path d="M439,354.8242 L429,354.8242 C414,354.8242 414,395.6406 399,395.6406 L389,395.6406 " fill="none" style="stroke:#A80036;stroke-width:1.0;"/><path d="M537,439.2695 L527,439.2695 C512,439.2695 512,354.8242 497,354.8242 L487,354.8242 " fill="none" style="stroke:#A80036;stroke-width:1.0;"/><rect fill="#FEFECE" filter="url(#f1l7kg1phq6t63)" height="36.2969" rx="12.5" ry="12.5" style="stroke:#A80036;stroke-width:1.5;" width="76" x="411" y="433.7891"/><text fill="#000000" font-family="sans-serif" font-size="14" lengthAdjust="spacing" textLength="56" x="421" y="456.7842">动态代理</text><text fill="#000000" font-family="sans-serif" font-size="14" lengthAdjust="spacing" textLength="273" x="85" y="447.6357">spring aop的理解，解决什么问题,实现原理</text><path d="M411,451.9375 L401,451.9375 C386,451.9375 386,442.7891 371,442.7891 L361,442.7891 " fill="none" style="stroke:#A80036;stroke-width:1.0;"/><text fill="#000000" font-family="sans-serif" font-size="14" lengthAdjust="spacing" textLength="196" x="162" y="465.9326">jdk动态代理,cglib区别，优缺点</text><path d="M411,451.9375 L401,451.9375 C386,451.9375 386,461.0859 371,461.0859 L361,461.0859 " fill="none" style="stroke:#A80036;stroke-width:1.0;"/><path d="M537,439.2695 L527,439.2695 C512,439.2695 512,451.9375 497,451.9375 L487,451.9375 " fill="none" style="stroke:#A80036;stroke-width:1.0;"/><rect fill="#FEFECE" filter="url(#f1l7kg1phq6t63)" height="36.2969" rx="12.5" ry="12.5" style="stroke:#A80036;stroke-width:1.5;" width="48" x="439" y="490.0859"/><text fill="#000000" font-family="sans-serif" font-size="14" lengthAdjust="spacing" textLength="28" x="449" y="513.0811">反射</text><text fill="#000000" font-family="sans-serif" font-size="14" lengthAdjust="spacing" textLength="28" x="358" y="513.0811">原理</text><path d="M439,508.2344 L429,508.2344 C414,508.2344 414,508.2344 399,508.2344 L389,508.2344 " fill="none" style="stroke:#A80036;stroke-width:1.0;"/><path d="M537,439.2695 L527,439.2695 C512,439.2695 512,508.2344 497,508.2344 L487,508.2344 " fill="none" style="stroke:#A80036;stroke-width:1.0;"/><rect fill="#FEFECE" filter="url(#f1l7kg1phq6t63)" height="36.2969" rx="12.5" ry="12.5" style="stroke:#A80036;stroke-width:1.5;" width="44" x="443" y="546.3828"/><text fill="#000000" font-family="sans-serif" font-size="14" lengthAdjust="spacing" textLength="24" x="453" y="569.3779">NIO</text><text fill="#000000" font-family="sans-serif" font-size="14" lengthAdjust="spacing" textLength="56" x="334" y="551.0811">实现原理</text><path d="M443,564.5313 L433,564.5313 C418,564.5313 418,546.2344 403,546.2344 L393,546.2344 " fill="none" style="stroke:#A80036;stroke-width:1.0;"/><text fill="#000000" font-family="sans-serif" font-size="14" lengthAdjust="spacing" textLength="42" x="348" y="569.3779">优缺点</text><path d="M443,564.5313 L433,564.5313 C418,564.5313 418,564.5313 403,564.5313 L393,564.5313 " fill="none" style="stroke:#A80036;stroke-width:1.0;"/><text fill="#000000" font-family="sans-serif" font-size="14" lengthAdjust="spacing" textLength="217" x="173" y="587.6748">netty的设计模型，架构，使用场景</text><path d="M443,564.5313 L433,564.5313 C418,564.5313 418,582.8281 403,582.8281 L393,582.8281 " fill="none" style="stroke:#A80036;stroke-width:1.0;"/><path d="M537,439.2695 L527,439.2695 C512,439.2695 512,564.5313 497,564.5313 L487,564.5313 " fill="none" style="stroke:#A80036;stroke-width:1.0;"/><!--MD5=[1bc26f91292f0d2f629e52154b8c1867]
@startmindmap
* Java

** 并发 & 同步

*** synchronized
****_ 原理，可重入性，可见性
****_ 锁升级

*** volatile
****_ 可见性
****_ 内存屏障

*** 锁
**** 锁升级
*****_ 偏向锁
*****_ 轻量级锁
*****_ 重量级锁

****_ 乐观
****_ 悲观
****_ CAS
**** 死锁
*****_ 产生条件
*****_ 排查
**** reentrantlock
*****_ 实现原理，加锁和释放锁的一个过程
*****_ aqs
*****_ 公平和非公平
*****_ 可重入
*****_ 可中断

*** 并发工具类
**** concurrenthashmap
*****_ 怎么保证线程安全的
*****_ 为什么用synchronized
*****_ 分段锁有什么问题
*****_ hash算法做了哪些优化
**** threadlocal
*****_ 什么场景下使用的
*****_ 原理
*****_ hash冲突怎么办
*****_ 扩容实现
*****_ 内存泄漏产生原因，怎么解决
**** 线程池
*****_ 原理
*****_ 核心参数
*****_ 线程数设置
*****_ 参数动态调整后变化过程 *
*****_ 线程抛异常怎么办 *


** 线程
*** 线程状态
****_ NEW
****_ RUNNABLE
**** BLOCKED
*****_ 等待 montor lock 进入同步区
*****_ Object.wait() 后阻塞重新进入同步区
**** WAITING
*****_ 无限 Object.wait()
*****_ 无限 Thread.join()
*****_ LockSupport.park
**** TIMED_WAITING
*****_ Thread.sleep
*****_ 有限 Object.wait()
*****_ 有限 Thread.join()
*****_ LockSupport.parkNanos
*****_ LockSupport.parkUntil
****_ TERMINATED

***_ interrupt()

left side
** 集合

*** hashmap
****_ 原理, put & get
****_ 8转红黑树?
****_ 什么时候扩容? 0.75？
****_ 扩容步骤，为什么分高低位
****_ 头插法有什么问题，为什么线程不安全 

*** arraylist
****_ 数组加transient
****_ 扩容原理


** 动态代理
***_ spring aop的理解，解决什么问题,实现原理
***_ jdk动态代理,cglib区别，优缺点

** 反射
***_ 原理

** NIO
***_ 实现原理
***_ 优缺点
***_ netty的设计模型，架构，使用场景

@endmindmap

PlantUML version 1.2021.6(Fri May 14 07:09:51 UTC 2021)
(GPL source distribution)
Java Runtime: OpenJDK Runtime Environment
JVM: OpenJDK 64-Bit Server VM
Default Encoding: UTF-8
Language: en
Country: null
--></g></svg>