<?xml version="1.0" encoding="UTF-8" standalone="no"?><svg xmlns="http://www.w3.org/2000/svg" xmlns:xlink="http://www.w3.org/1999/xlink" contentScriptType="application/ecmascript" contentStyleType="text/css" height="865px" preserveAspectRatio="none" style="width:651px;height:865px;background:#FFFFFF;" version="1.1" viewBox="0 0 651 865" width="651px" zoomAndPan="magnify"><defs><filter height="300%" id="fzd1uyf6wvibr" width="300%" x="-1" y="-1"><feGaussianBlur result="blurOut" stdDeviation="2.0"/><feColorMatrix in="blurOut" result="blurOut2" type="matrix" values="0 0 0 0 0 0 0 0 0 0 0 0 0 0 0 0 0 0 .4 0"/><feOffset dx="4.0" dy="4.0" in="blurOut2" result="blurOut3"/><feBlend in="SourceGraphic" in2="blurOut3" mode="normal"/></filter></defs><g><rect fill="#FEFECE" filter="url(#fzd1uyf6wvibr)" height="36.2969" rx="12.5" ry="12.5" style="stroke:#A80036;stroke-width:1.5;" width="44" x="10" y="413.7305"/><text fill="#000000" font-family="sans-serif" font-size="14" lengthAdjust="spacing" textLength="24" x="20" y="436.7256">JVM</text><rect fill="#FEFECE" filter="url(#fzd1uyf6wvibr)" height="36.2969" rx="12.5" ry="12.5" style="stroke:#A80036;stroke-width:1.5;" width="48" x="104" y="28.4453"/><text fill="#000000" font-family="sans-serif" font-size="14" lengthAdjust="spacing" textLength="28" x="114" y="51.4404">参数</text><path d="M54,431.8789 L64,431.8789 C79,431.8789 79,46.5938 94,46.5938 L104,46.5938 " fill="none" style="stroke:#A80036;stroke-width:1.0;"/><rect fill="#FEFECE" filter="url(#fzd1uyf6wvibr)" height="36.2969" rx="12.5" ry="12.5" style="stroke:#A80036;stroke-width:1.5;" width="76" x="104" y="84.7422"/><text fill="#000000" font-family="sans-serif" font-size="14" lengthAdjust="spacing" textLength="56" x="114" y="107.7373">类加载器</text><rect fill="#FEFECE" filter="url(#fzd1uyf6wvibr)" height="36.2969" rx="12.5" ry="12.5" style="stroke:#A80036;stroke-width:1.5;" width="48" x="230" y="28.4453"/><text fill="#000000" font-family="sans-serif" font-size="14" lengthAdjust="spacing" textLength="28" x="240" y="51.4404">分类</text><text fill="#000000" font-family="sans-serif" font-size="14" lengthAdjust="spacing" textLength="156" x="331" y="23.9951">Bootstrap ClassLoader</text><path d="M278,46.5938 L288,46.5938 C303,46.5938 303,19.1484 318,19.1484 L328,19.1484 " fill="none" style="stroke:#A80036;stroke-width:1.0;"/><text fill="#000000" font-family="sans-serif" font-size="14" lengthAdjust="spacing" textLength="156" x="331" y="42.292">Extension ClassLoader</text><path d="M278,46.5938 L288,46.5938 C303,46.5938 303,37.4453 318,37.4453 L328,37.4453 " fill="none" style="stroke:#A80036;stroke-width:1.0;"/><text fill="#000000" font-family="sans-serif" font-size="14" lengthAdjust="spacing" textLength="159" x="331" y="60.5889">Application Classloader</text><path d="M278,46.5938 L288,46.5938 C303,46.5938 303,55.7422 318,55.7422 L328,55.7422 " fill="none" style="stroke:#A80036;stroke-width:1.0;"/><text fill="#000000" font-family="sans-serif" font-size="14" lengthAdjust="spacing" textLength="84" x="331" y="78.8857">自定义加载器</text><path d="M278,46.5938 L288,46.5938 C303,46.5938 303,74.0391 318,74.0391 L328,74.0391 " fill="none" style="stroke:#A80036;stroke-width:1.0;"/><path d="M180,102.8906 L190,102.8906 C205,102.8906 205,46.5938 220,46.5938 L230,46.5938 " fill="none" style="stroke:#A80036;stroke-width:1.0;"/><rect fill="#FEFECE" filter="url(#fzd1uyf6wvibr)" height="36.2969" rx="12.5" ry="12.5" style="stroke:#A80036;stroke-width:1.5;" width="76" x="230" y="93.1875"/><text fill="#000000" font-family="sans-serif" font-size="14" lengthAdjust="spacing" textLength="56" x="240" y="116.1826">双亲委派</text><text fill="#000000" font-family="sans-serif" font-size="14" lengthAdjust="spacing" textLength="28" x="359" y="107.0342">机制</text><path d="M306,111.3359 L316,111.3359 C331,111.3359 331,102.1875 346,102.1875 L356,102.1875 " fill="none" style="stroke:#A80036;stroke-width:1.0;"/><text fill="#000000" font-family="sans-serif" font-size="14" lengthAdjust="spacing" textLength="56" x="359" y="125.3311">三次破坏</text><path d="M306,111.3359 L316,111.3359 C331,111.3359 331,120.4844 346,120.4844 L356,120.4844 " fill="none" style="stroke:#A80036;stroke-width:1.0;"/><path d="M180,102.8906 L190,102.8906 C205,102.8906 205,111.3359 220,111.3359 L230,111.3359 " fill="none" style="stroke:#A80036;stroke-width:1.0;"/><rect fill="#FEFECE" filter="url(#fzd1uyf6wvibr)" height="36.2969" rx="12.5" ry="12.5" style="stroke:#A80036;stroke-width:1.5;" width="90" x="230" y="149.4844"/><text fill="#000000" font-family="sans-serif" font-size="14" lengthAdjust="spacing" textLength="70" x="240" y="172.4795">类加载过程</text><text fill="#000000" font-family="sans-serif" font-size="14" lengthAdjust="spacing" textLength="56" x="373" y="154.1826">详细过程</text><path d="M320,167.6328 L330,167.6328 C345,167.6328 345,149.3359 360,149.3359 L370,149.3359 " fill="none" style="stroke:#A80036;stroke-width:1.0;"/><text fill="#000000" font-family="sans-serif" font-size="14" lengthAdjust="spacing" textLength="56" x="373" y="172.4795">符号引用</text><path d="M320,167.6328 L330,167.6328 C345,167.6328 345,167.6328 360,167.6328 L370,167.6328 " fill="none" style="stroke:#A80036;stroke-width:1.0;"/><text fill="#000000" font-family="sans-serif" font-size="14" lengthAdjust="spacing" textLength="70" x="373" y="190.7764">初始化过程</text><path d="M320,167.6328 L330,167.6328 C345,167.6328 345,185.9297 360,185.9297 L370,185.9297 " fill="none" style="stroke:#A80036;stroke-width:1.0;"/><path d="M180,102.8906 L190,102.8906 C205,102.8906 205,167.6328 220,167.6328 L230,167.6328 " fill="none" style="stroke:#A80036;stroke-width:1.0;"/><path d="M54,431.8789 L64,431.8789 C79,431.8789 79,102.8906 94,102.8906 L104,102.8906 " fill="none" style="stroke:#A80036;stroke-width:1.0;"/><rect fill="#FEFECE" filter="url(#fzd1uyf6wvibr)" height="36.2969" rx="12.5" ry="12.5" style="stroke:#A80036;stroke-width:1.5;" width="41" x="104" y="270.5234"/><text fill="#000000" font-family="sans-serif" font-size="14" lengthAdjust="spacing" textLength="21" x="114" y="293.5186">GC</text><rect fill="#FEFECE" filter="url(#fzd1uyf6wvibr)" height="36.2969" rx="12.5" ry="12.5" style="stroke:#A80036;stroke-width:1.5;" width="51" x="195" y="205.7813"/><text fill="#000000" font-family="sans-serif" font-size="14" lengthAdjust="spacing" textLength="31" x="205" y="228.7764">CMS</text><path d="M145,288.6719 L155,288.6719 C170,288.6719 170,223.9297 185,223.9297 L195,223.9297 " fill="none" style="stroke:#A80036;stroke-width:1.0;"/><rect fill="#FEFECE" filter="url(#fzd1uyf6wvibr)" height="36.2969" rx="12.5" ry="12.5" style="stroke:#A80036;stroke-width:1.5;" width="40" x="195" y="262.0781"/><text fill="#000000" font-family="sans-serif" font-size="14" lengthAdjust="spacing" textLength="20" x="205" y="285.0732">G1</text><path d="M145,288.6719 L155,288.6719 C170,288.6719 170,280.2266 185,280.2266 L195,280.2266 " fill="none" style="stroke:#A80036;stroke-width:1.0;"/><text fill="#000000" font-family="sans-serif" font-size="14" lengthAdjust="spacing" textLength="99" x="198" y="322.3701">gc roots有哪些</text><path d="M145,288.6719 L155,288.6719 C170,288.6719 170,317.5234 185,317.5234 L195,317.5234 " fill="none" style="stroke:#A80036;stroke-width:1.0;"/><text fill="#000000" font-family="sans-serif" font-size="14" lengthAdjust="spacing" textLength="152" x="198" y="340.667">什么情况下会发生full gc</text><path d="M145,288.6719 L155,288.6719 C170,288.6719 170,335.8203 185,335.8203 L195,335.8203 " fill="none" style="stroke:#A80036;stroke-width:1.0;"/><text fill="#000000" font-family="sans-serif" font-size="14" lengthAdjust="spacing" textLength="126" x="198" y="358.9639">什么对象进入老年代</text><path d="M145,288.6719 L155,288.6719 C170,288.6719 170,354.1172 185,354.1172 L195,354.1172 " fill="none" style="stroke:#A80036;stroke-width:1.0;"/><text fill="#000000" font-family="sans-serif" font-size="14" lengthAdjust="spacing" textLength="425" x="198" y="377.2607">eden和survivor比例可以调整么，参数是什么，调整后会有什么问题</text><path d="M145,288.6719 L155,288.6719 C170,288.6719 170,372.4141 185,372.4141 L195,372.4141 " fill="none" style="stroke:#A80036;stroke-width:1.0;"/><path d="M54,431.8789 L64,431.8789 C79,431.8789 79,288.6719 94,288.6719 L104,288.6719 " fill="none" style="stroke:#A80036;stroke-width:1.0;"/><rect fill="#FEFECE" filter="url(#fzd1uyf6wvibr)" height="36.2969" rx="12.5" ry="12.5" style="stroke:#A80036;stroke-width:1.5;" width="54" x="104" y="391.5625"/><text fill="#000000" font-family="sans-serif" font-size="14" lengthAdjust="spacing" textLength="34" x="114" y="414.5576">OOM</text><text fill="#000000" font-family="sans-serif" font-size="14" lengthAdjust="spacing" textLength="28" x="211" y="405.4092">排查</text><path d="M158,409.7109 L168,409.7109 C183,409.7109 183,400.5625 198,400.5625 L208,400.5625 " fill="none" style="stroke:#A80036;stroke-width:1.0;"/><text fill="#000000" font-family="sans-serif" font-size="14" lengthAdjust="spacing" textLength="56" x="211" y="423.7061">产生原因</text><path d="M158,409.7109 L168,409.7109 C183,409.7109 183,418.8594 198,418.8594 L208,418.8594 " fill="none" style="stroke:#A80036;stroke-width:1.0;"/><path d="M54,431.8789 L64,431.8789 C79,431.8789 79,409.7109 94,409.7109 L104,409.7109 " fill="none" style="stroke:#A80036;stroke-width:1.0;"/><rect fill="#FEFECE" filter="url(#fzd1uyf6wvibr)" height="36.2969" rx="12.5" ry="12.5" style="stroke:#A80036;stroke-width:1.5;" width="76" x="104" y="594.5859"/><text fill="#000000" font-family="sans-serif" font-size="14" lengthAdjust="spacing" textLength="56" x="114" y="617.5811">内存区域</text><rect fill="#FEFECE" filter="url(#fzd1uyf6wvibr)" height="36.2969" rx="12.5" ry="12.5" style="stroke:#A80036;stroke-width:1.5;" width="76" x="230" y="446.4531"/><text fill="#000000" font-family="sans-serif" font-size="14" lengthAdjust="spacing" textLength="56" x="240" y="469.4482">内存结构</text><text fill="#000000" font-family="sans-serif" font-size="14" lengthAdjust="spacing" textLength="70" x="359" y="442.0029">程序计数器</text><path d="M306,464.6016 L316,464.6016 C331,464.6016 331,437.1563 346,437.1563 L356,437.1563 " fill="none" style="stroke:#A80036;stroke-width:1.0;"/><text fill="#000000" font-family="sans-serif" font-size="14" lengthAdjust="spacing" textLength="56" x="359" y="460.2998">虚拟机栈</text><path d="M306,464.6016 L316,464.6016 C331,464.6016 331,455.4531 346,455.4531 L356,455.4531 " fill="none" style="stroke:#A80036;stroke-width:1.0;"/><text fill="#000000" font-family="sans-serif" font-size="14" lengthAdjust="spacing" textLength="14" x="359" y="478.5967">堆</text><path d="M306,464.6016 L316,464.6016 C331,464.6016 331,473.75 346,473.75 L356,473.75 " fill="none" style="stroke:#A80036;stroke-width:1.0;"/><text fill="#000000" font-family="sans-serif" font-size="14" lengthAdjust="spacing" textLength="42" x="359" y="496.8936">方法区</text><path d="M306,464.6016 L316,464.6016 C331,464.6016 331,492.0469 346,492.0469 L356,492.0469 " fill="none" style="stroke:#A80036;stroke-width:1.0;"/><path d="M180,612.7344 L190,612.7344 C205,612.7344 205,464.6016 220,464.6016 L230,464.6016 " fill="none" style="stroke:#A80036;stroke-width:1.0;"/><rect fill="#FEFECE" filter="url(#fzd1uyf6wvibr)" height="36.2969" rx="12.5" ry="12.5" style="stroke:#A80036;stroke-width:1.5;" width="76" x="230" y="510.4922"/><text fill="#000000" font-family="sans-serif" font-size="14" lengthAdjust="spacing" textLength="56" x="240" y="533.4873">操作数栈</text><text fill="#000000" font-family="sans-serif" font-size="14" lengthAdjust="spacing" textLength="84" x="359" y="515.1904">操作数栈过程</text><path d="M306,528.6406 L316,528.6406 C331,528.6406 331,510.3438 346,510.3438 L356,510.3438 " fill="none" style="stroke:#A80036;stroke-width:1.0;"/><text fill="#000000" font-family="sans-serif" font-size="14" lengthAdjust="spacing" textLength="168" x="359" y="533.4873">方法返回地址什么时候回收</text><path d="M306,528.6406 L316,528.6406 C331,528.6406 331,528.6406 346,528.6406 L356,528.6406 " fill="none" style="stroke:#A80036;stroke-width:1.0;"/><text fill="#000000" font-family="sans-serif" font-size="14" lengthAdjust="spacing" textLength="154" x="359" y="551.7842">程序计数器什么时候为空</text><path d="M306,528.6406 L316,528.6406 C331,528.6406 331,546.9375 346,546.9375 L356,546.9375 " fill="none" style="stroke:#A80036;stroke-width:1.0;"/><path d="M180,612.7344 L190,612.7344 C205,612.7344 205,528.6406 220,528.6406 L230,528.6406 " fill="none" style="stroke:#A80036;stroke-width:1.0;"/><rect fill="#FEFECE" filter="url(#fzd1uyf6wvibr)" height="36.2969" rx="12.5" ry="12.5" style="stroke:#A80036;stroke-width:1.5;" width="160" x="230" y="566.7891"/><text fill="#000000" font-family="sans-serif" font-size="14" lengthAdjust="spacing" textLength="140" x="240" y="589.7842">对象一定分配在堆上么</text><text fill="#000000" font-family="sans-serif" font-size="14" lengthAdjust="spacing" textLength="35" x="443" y="580.6357">TLAB</text><path d="M390,584.9375 L400,584.9375 C415,584.9375 415,575.7891 430,575.7891 L440,575.7891 " fill="none" style="stroke:#A80036;stroke-width:1.0;"/><text fill="#000000" font-family="sans-serif" font-size="14" lengthAdjust="spacing" textLength="56" x="443" y="598.9326">标量替换</text><path d="M390,584.9375 L400,584.9375 C415,584.9375 415,594.0859 430,594.0859 L440,594.0859 " fill="none" style="stroke:#A80036;stroke-width:1.0;"/><path d="M180,612.7344 L190,612.7344 C205,612.7344 205,584.9375 220,584.9375 L230,584.9375 " fill="none" style="stroke:#A80036;stroke-width:1.0;"/><rect fill="#FEFECE" filter="url(#fzd1uyf6wvibr)" height="36.2969" rx="12.5" ry="12.5" style="stroke:#A80036;stroke-width:1.5;" width="104" x="230" y="641.3828"/><text fill="#000000" font-family="sans-serif" font-size="14" lengthAdjust="spacing" textLength="84" x="240" y="664.3779">对象内存布局</text><rect fill="#FEFECE" filter="url(#fzd1uyf6wvibr)" height="36.2969" rx="12.5" ry="12.5" style="stroke:#A80036;stroke-width:1.5;" width="62" x="384" y="623.0859"/><text fill="#000000" font-family="sans-serif" font-size="14" lengthAdjust="spacing" textLength="42" x="394" y="646.0811">对象头</text><text fill="#000000" font-family="sans-serif" font-size="14" lengthAdjust="spacing" textLength="140" x="499" y="627.7842">对象自身运行时的数据</text><path d="M446,641.2344 L456,641.2344 C471,641.2344 471,622.9375 486,622.9375 L496,622.9375 " fill="none" style="stroke:#A80036;stroke-width:1.0;"/><text fill="#000000" font-family="sans-serif" font-size="14" lengthAdjust="spacing" textLength="56" x="499" y="646.0811">类型指针</text><path d="M446,641.2344 L456,641.2344 C471,641.2344 471,641.2344 486,641.2344 L496,641.2344 " fill="none" style="stroke:#A80036;stroke-width:1.0;"/><text fill="#000000" font-family="sans-serif" font-size="14" lengthAdjust="spacing" textLength="66" x="499" y="664.3779">[数组长度]</text><path d="M446,641.2344 L456,641.2344 C471,641.2344 471,659.5313 486,659.5313 L496,659.5313 " fill="none" style="stroke:#A80036;stroke-width:1.0;"/><path d="M334,659.5313 L344,659.5313 C359,659.5313 359,641.2344 374,641.2344 L384,641.2344 " fill="none" style="stroke:#A80036;stroke-width:1.0;"/><text fill="#000000" font-family="sans-serif" font-size="14" lengthAdjust="spacing" textLength="56" x="387" y="683.3779">实例数据</text><path d="M334,659.5313 L344,659.5313 C359,659.5313 359,678.5313 374,678.5313 L384,678.5313 " fill="none" style="stroke:#A80036;stroke-width:1.0;"/><text fill="#000000" font-family="sans-serif" font-size="14" lengthAdjust="spacing" textLength="56" x="387" y="701.6748">对齐填充</text><path d="M334,659.5313 L344,659.5313 C359,659.5313 359,696.8281 374,696.8281 L384,696.8281 " fill="none" style="stroke:#A80036;stroke-width:1.0;"/><path d="M180,612.7344 L190,612.7344 C205,612.7344 205,659.5313 220,659.5313 L230,659.5313 " fill="none" style="stroke:#A80036;stroke-width:1.0;"/><rect fill="#FEFECE" filter="url(#fzd1uyf6wvibr)" height="36.2969" rx="12.5" ry="12.5" style="stroke:#A80036;stroke-width:1.5;" width="76" x="230" y="733.5703"/><text fill="#000000" font-family="sans-serif" font-size="14" lengthAdjust="spacing" textLength="56" x="240" y="756.5654">内存结构</text><text fill="#000000" font-family="sans-serif" font-size="14" lengthAdjust="spacing" textLength="78" x="359" y="719.9717">堆（Heap）</text><path d="M306,751.7188 L316,751.7188 C331,751.7188 331,715.125 346,715.125 L356,715.125 " fill="none" style="stroke:#A80036;stroke-width:1.0;"/><text fill="#000000" font-family="sans-serif" font-size="14" lengthAdjust="spacing" textLength="158" x="359" y="738.2686">方法区（Method Area）</text><path d="M306,751.7188 L316,751.7188 C331,751.7188 331,733.4219 346,733.4219 L356,733.4219 " fill="none" style="stroke:#A80036;stroke-width:1.0;"/><text fill="#000000" font-family="sans-serif" font-size="14" lengthAdjust="spacing" textLength="278" x="359" y="756.5654">程序计数器（Program Counter Register）</text><path d="M306,751.7188 L316,751.7188 C331,751.7188 331,751.7188 346,751.7188 L356,751.7188 " fill="none" style="stroke:#A80036;stroke-width:1.0;"/><text fill="#000000" font-family="sans-serif" font-size="14" lengthAdjust="spacing" textLength="158" x="359" y="774.8623">虚拟机栈（JVM Stacks）</text><path d="M306,751.7188 L316,751.7188 C331,751.7188 331,770.0156 346,770.0156 L356,770.0156 " fill="none" style="stroke:#A80036;stroke-width:1.0;"/><text fill="#000000" font-family="sans-serif" font-size="14" lengthAdjust="spacing" textLength="247" x="359" y="793.1592">本地方法栈（Native Method Stacks）</text><path d="M306,751.7188 L316,751.7188 C331,751.7188 331,788.3125 346,788.3125 L356,788.3125 " fill="none" style="stroke:#A80036;stroke-width:1.0;"/><path d="M180,612.7344 L190,612.7344 C205,612.7344 205,751.7188 220,751.7188 L230,751.7188 " fill="none" style="stroke:#A80036;stroke-width:1.0;"/><path d="M54,431.8789 L64,431.8789 C79,431.8789 79,612.7344 94,612.7344 L104,612.7344 " fill="none" style="stroke:#A80036;stroke-width:1.0;"/><rect fill="#FEFECE" filter="url(#fzd1uyf6wvibr)" height="36.2969" rx="12.5" ry="12.5" style="stroke:#A80036;stroke-width:1.5;" width="118" x="104" y="807.4609"/><text fill="#000000" font-family="sans-serif" font-size="14" lengthAdjust="spacing" textLength="98" x="114" y="830.4561">前端编译与优化</text><text fill="#000000" font-family="sans-serif" font-size="14" lengthAdjust="spacing" textLength="15" x="275" y="821.3076">JIT</text><path d="M222,825.6094 L232,825.6094 C247,825.6094 247,816.4609 262,816.4609 L272,816.4609 " fill="none" style="stroke:#A80036;stroke-width:1.0;"/><text fill="#000000" font-family="sans-serif" font-size="14" lengthAdjust="spacing" textLength="56" x="275" y="839.6045">逃逸分析</text><path d="M222,825.6094 L232,825.6094 C247,825.6094 247,834.7578 262,834.7578 L272,834.7578 " fill="none" style="stroke:#A80036;stroke-width:1.0;"/><path d="M54,431.8789 L64,431.8789 C79,431.8789 79,825.6094 94,825.6094 L104,825.6094 " fill="none" style="stroke:#A80036;stroke-width:1.0;"/><!--MD5=[97ded3fd6c6ebb3ad152bc0797a48ea3]
@startmindmap
* JVM

** 参数

** 类加载器
*** 分类
****_ Bootstrap ClassLoader
****_  Extension ClassLoader
****_ Application Classloader
****_ 自定义加载器
*** 双亲委派
****_ 机制
****_ 三次破坏
*** 类加载过程
****_ 详细过程
****_ 符号引用
****_ 初始化过程


** GC
*** CMS
*** G1
***_ gc roots有哪些
***_ 什么情况下会发生full gc
***_ 什么对象进入老年代
***_ eden和survivor比例可以调整么，参数是什么，调整后会有什么问题

** OOM
***_ 排查
***_ 产生原因

** 内存区域
*** 内存结构
****_ 程序计数器
****_ 虚拟机栈
****_ 堆
****_ 方法区

*** 操作数栈
****_ 操作数栈过程
****_ 方法返回地址什么时候回收
****_ 程序计数器什么时候为空


*** 对象一定分配在堆上么
****_ TLAB
****_ 标量替换

*** 对象内存布局
**** 对象头
*****_ 对象自身运行时的数据
*****_ 类型指针
*****_ [数组长度]
****_ 实例数据
****_ 对齐填充

*** 内存结构
****_ 堆（Heap）
****_ 方法区（Method Area）
****_ 程序计数器（Program Counter Register）
****_ 虚拟机栈（JVM Stacks）
****_ 本地方法栈（Native Method Stacks）

** 前端编译与优化
***_ JIT
***_ 逃逸分析

@endmindmap

PlantUML version 1.2021.6(Fri May 14 07:09:51 UTC 2021)
(GPL source distribution)
Java Runtime: OpenJDK Runtime Environment
JVM: OpenJDK 64-Bit Server VM
Default Encoding: UTF-8
Language: en
Country: null
--></g></svg>