<?xml version="1.0" encoding="UTF-8" standalone="no"?><svg xmlns="http://www.w3.org/2000/svg" xmlns:xlink="http://www.w3.org/1999/xlink" contentScriptType="application/ecmascript" contentStyleType="text/css" height="347px" preserveAspectRatio="none" style="width:552px;height:347px;background:#FFFFFF;" version="1.1" viewBox="0 0 552 347" width="552px" zoomAndPan="magnify"><defs><filter height="300%" id="f1u80uuxj8vucs" width="300%" x="-1" y="-1"><feGaussianBlur result="blurOut" stdDeviation="2.0"/><feColorMatrix in="blurOut" result="blurOut2" type="matrix" values="0 0 0 0 0 0 0 0 0 0 0 0 0 0 0 0 0 0 .4 0"/><feOffset dx="4.0" dy="4.0" in="blurOut2" result="blurOut3"/><feBlend in="SourceGraphic" in2="blurOut3" mode="normal"/></filter></defs><g><rect fill="#FEFECE" filter="url(#f1u80uuxj8vucs)" height="36.2969" rx="12.5" ry="12.5" style="stroke:#A80036;stroke-width:1.5;" width="55" x="10" y="154.4102"/><text fill="#000000" font-family="sans-serif" font-size="14" lengthAdjust="spacing" textLength="35" x="20" y="177.4053">Linux</text><rect fill="#FEFECE" filter="url(#f1u80uuxj8vucs)" height="36.2969" rx="12.5" ry="12.5" style="stroke:#A80036;stroke-width:1.5;" width="64" x="115" y="20"/><text fill="#000000" font-family="sans-serif" font-size="14" lengthAdjust="spacing" textLength="44" x="125" y="42.9951">Kernel</text><text fill="#000000" font-family="sans-serif" font-size="14" lengthAdjust="spacing" textLength="42" x="232" y="24.6982">用户态</text><path d="M179,38.1484 L189,38.1484 C204,38.1484 204,19.8516 219,19.8516 L229,19.8516 " fill="none" style="stroke:#A80036;stroke-width:1.0;"/><text fill="#000000" font-family="sans-serif" font-size="14" lengthAdjust="spacing" textLength="42" x="232" y="42.9951">内核态</text><path d="M179,38.1484 L189,38.1484 C204,38.1484 204,38.1484 219,38.1484 L229,38.1484 " fill="none" style="stroke:#A80036;stroke-width:1.0;"/><text fill="#000000" font-family="sans-serif" font-size="14" lengthAdjust="spacing" textLength="308" x="232" y="61.292">有几种转换的方式，怎么转换的，转换失败怎么办</text><path d="M179,38.1484 L189,38.1484 C204,38.1484 204,56.4453 219,56.4453 L229,56.4453 " fill="none" style="stroke:#A80036;stroke-width:1.0;"/><path d="M65,172.5586 L75,172.5586 C90,172.5586 90,38.1484 105,38.1484 L115,38.1484 " fill="none" style="stroke:#A80036;stroke-width:1.0;"/><rect fill="#FEFECE" filter="url(#f1u80uuxj8vucs)" height="36.2969" rx="12.5" ry="12.5" style="stroke:#A80036;stroke-width:1.5;" width="76" x="115" y="76.2969"/><text fill="#000000" font-family="sans-serif" font-size="14" lengthAdjust="spacing" textLength="56" x="125" y="99.292">虚拟内存</text><text fill="#000000" font-family="sans-serif" font-size="14" lengthAdjust="spacing" textLength="182" x="244" y="90.1436">虚拟地址和物理地址怎么转换</text><path d="M191,94.4453 L201,94.4453 C216,94.4453 216,85.2969 231,85.2969 L241,85.2969 " fill="none" style="stroke:#A80036;stroke-width:1.0;"/><text fill="#000000" font-family="sans-serif" font-size="14" lengthAdjust="spacing" textLength="162" x="244" y="108.4404">内存分段,内存分页,优缺点</text><path d="M191,94.4453 L201,94.4453 C216,94.4453 216,103.5938 231,103.5938 L241,103.5938 " fill="none" style="stroke:#A80036;stroke-width:1.0;"/><path d="M65,172.5586 L75,172.5586 C90,172.5586 90,94.4453 105,94.4453 L115,94.4453 " fill="none" style="stroke:#A80036;stroke-width:1.0;"/><rect fill="#FEFECE" filter="url(#f1u80uuxj8vucs)" height="36.2969" rx="12.5" ry="12.5" style="stroke:#A80036;stroke-width:1.5;" width="48" x="115" y="159.3359"/><text fill="#000000" font-family="sans-serif" font-size="14" lengthAdjust="spacing" textLength="28" x="125" y="182.3311">进程</text><text fill="#000000" font-family="sans-serif" font-size="14" lengthAdjust="spacing" textLength="166" x="216" y="136.5889">fork函数，父子进程的区别</text><path d="M163,177.4844 L173,177.4844 C188,177.4844 188,131.7422 203,131.7422 L213,131.7422 " fill="none" style="stroke:#A80036;stroke-width:1.0;"/><text fill="#000000" font-family="sans-serif" font-size="14" lengthAdjust="spacing" textLength="210" x="216" y="154.8857">孤儿进程，僵尸进程会有什么问题</text><path d="M163,177.4844 L173,177.4844 C188,177.4844 188,150.0391 203,150.0391 L213,150.0391 " fill="none" style="stroke:#A80036;stroke-width:1.0;"/><text fill="#000000" font-family="sans-serif" font-size="14" lengthAdjust="spacing" textLength="98" x="216" y="173.1826">进程有哪些状态</text><path d="M163,177.4844 L173,177.4844 C188,177.4844 188,168.3359 203,168.3359 L213,168.3359 " fill="none" style="stroke:#A80036;stroke-width:1.0;"/><text fill="#000000" font-family="sans-serif" font-size="14" lengthAdjust="spacing" textLength="140" x="216" y="191.4795">进程间怎么同步，通信</text><path d="M163,177.4844 L173,177.4844 C188,177.4844 188,186.6328 203,186.6328 L213,186.6328 " fill="none" style="stroke:#A80036;stroke-width:1.0;"/><text fill="#000000" font-family="sans-serif" font-size="14" lengthAdjust="spacing" textLength="168" x="216" y="209.7764">消息队列，管道怎么实现的</text><path d="M163,177.4844 L173,177.4844 C188,177.4844 188,204.9297 203,204.9297 L213,204.9297 " fill="none" style="stroke:#A80036;stroke-width:1.0;"/><text fill="#000000" font-family="sans-serif" font-size="14" lengthAdjust="spacing" textLength="84" x="216" y="228.0732">进程调度算法</text><path d="M163,177.4844 L173,177.4844 C188,177.4844 188,223.2266 203,223.2266 L213,223.2266 " fill="none" style="stroke:#A80036;stroke-width:1.0;"/><path d="M65,172.5586 L75,172.5586 C90,172.5586 90,177.4844 105,177.4844 L115,177.4844 " fill="none" style="stroke:#A80036;stroke-width:1.0;"/><rect fill="#FEFECE" filter="url(#f1u80uuxj8vucs)" height="36.2969" rx="12.5" ry="12.5" style="stroke:#A80036;stroke-width:1.5;" width="34" x="115" y="232.5234"/><text fill="#000000" font-family="sans-serif" font-size="14" lengthAdjust="spacing" textLength="14" x="125" y="255.5186">锁</text><text fill="#000000" font-family="sans-serif" font-size="14" lengthAdjust="spacing" textLength="42" x="202" y="246.3701">自旋锁</text><path d="M149,250.6719 L159,250.6719 C174,250.6719 174,241.5234 189,241.5234 L199,241.5234 " fill="none" style="stroke:#A80036;stroke-width:1.0;"/><text fill="#000000" font-family="sans-serif" font-size="14" lengthAdjust="spacing" textLength="168" x="202" y="264.667">线程上下文切换的开销具体</text><path d="M149,250.6719 L159,250.6719 C174,250.6719 174,259.8203 189,259.8203 L199,259.8203 " fill="none" style="stroke:#A80036;stroke-width:1.0;"/><path d="M65,172.5586 L75,172.5586 C90,172.5586 90,250.6719 105,250.6719 L115,250.6719 " fill="none" style="stroke:#A80036;stroke-width:1.0;"/><rect fill="#FEFECE" filter="url(#f1u80uuxj8vucs)" height="36.2969" rx="12.5" ry="12.5" style="stroke:#A80036;stroke-width:1.5;" width="48" x="115" y="288.8203"/><text fill="#000000" font-family="sans-serif" font-size="14" lengthAdjust="spacing" textLength="28" x="125" y="311.8154">中断</text><path d="M65,172.5586 L75,172.5586 C90,172.5586 90,306.9688 105,306.9688 L115,306.9688 " fill="none" style="stroke:#A80036;stroke-width:1.0;"/><!--MD5=[c17b0df6b1f099df82a53e81244c9603]
@startmindmap
* Linux
** Kernel
***_ 用户态
***_ 内核态
***_ 有几种转换的方式，怎么转换的，转换失败怎么办

** 虚拟内存
***_ 虚拟地址和物理地址怎么转换
***_ 内存分段,内存分页,优缺点 

** 进程
***_ fork函数，父子进程的区别
***_ 孤儿进程，僵尸进程会有什么问题
***_ 进程有哪些状态
***_ 进程间怎么同步，通信
***_ 消息队列，管道怎么实现的
***_ 进程调度算法

** 锁
***_ 自旋锁
***_ 线程上下文切换的开销具体

** 中断
@endmindmap

PlantUML version 1.2021.6(Fri May 14 07:09:51 UTC 2021)
(GPL source distribution)
Java Runtime: OpenJDK Runtime Environment
JVM: OpenJDK 64-Bit Server VM
Default Encoding: UTF-8
Language: en
Country: null
--></g></svg>