<?xml version="1.0" encoding="UTF-8" standalone="no"?><svg xmlns="http://www.w3.org/2000/svg" xmlns:xlink="http://www.w3.org/1999/xlink" contentScriptType="application/ecmascript" contentStyleType="text/css" height="1208px" preserveAspectRatio="none" style="width:864px;height:1208px;background:#FFFFFF;" version="1.1" viewBox="0 0 864 1208" width="864px" zoomAndPan="magnify"><defs><filter height="300%" id="f1cunl4i46tswc" width="300%" x="-1" y="-1"><feGaussianBlur result="blurOut" stdDeviation="2.0"/><feColorMatrix in="blurOut" result="blurOut2" type="matrix" values="0 0 0 0 0 0 0 0 0 0 0 0 0 0 0 0 0 0 .4 0"/><feOffset dx="4.0" dy="4.0" in="blurOut2" result="blurOut3"/><feBlend in="SourceGraphic" in2="blurOut3" mode="normal"/></filter></defs><g><rect fill="#FEFECE" filter="url(#f1cunl4i46tswc)" height="36.2969" rx="12.5" ry="12.5" style="stroke:#A80036;stroke-width:1.5;" width="66" x="10" y="585.0859"/><text fill="#000000" font-family="sans-serif" font-size="14" lengthAdjust="spacing" textLength="46" x="20" y="608.0811">MySQL</text><rect fill="#FEFECE" filter="url(#f1cunl4i46tswc)" height="36.2969" rx="12.5" ry="12.5" style="stroke:#A80036;stroke-width:1.5;" width="193" x="126" y="46.7422"/><text fill="#000000" font-family="sans-serif" font-size="14" lengthAdjust="spacing" textLength="25" x="136" y="69.7373">Log</text><a href="https://zhuanlan.zhihu.com/p/58011817" target="_top" title="https://zhuanlan.zhihu.com/p/58011817" xlink:actuate="onRequest" xlink:href="https://zhuanlan.zhihu.com/p/58011817" xlink:show="new" xlink:title="https://zhuanlan.zhihu.com/p/58011817" xlink:type="simple"><text fill="#0000FF" font-family="sans-serif" font-size="14" lengthAdjust="spacing" text-decoration="underline" textLength="144" x="165" y="69.7373">MySQL日志分类及简介</text></a><text fill="#000000" font-family="sans-serif" font-size="14" lengthAdjust="spacing" textLength="56" x="372" y="23.9951">错误日志</text><path d="M319,64.8906 L329,64.8906 C344,64.8906 344,19.1484 359,19.1484 L369,19.1484 " fill="none" style="stroke:#A80036;stroke-width:1.0;"/><text fill="#000000" font-family="sans-serif" font-size="14" lengthAdjust="spacing" textLength="56" x="372" y="42.292">查询日志</text><path d="M319,64.8906 L329,64.8906 C344,64.8906 344,37.4453 359,37.4453 L369,37.4453 " fill="none" style="stroke:#A80036;stroke-width:1.0;"/><text fill="#000000" font-family="sans-serif" font-size="14" lengthAdjust="spacing" textLength="81" x="372" y="60.5889">慢查询日志 *</text><path d="M319,64.8906 L329,64.8906 C344,64.8906 344,55.7422 359,55.7422 L369,55.7422 " fill="none" style="stroke:#A80036;stroke-width:1.0;"/><text fill="#000000" font-family="sans-serif" font-size="14" lengthAdjust="spacing" textLength="139" x="372" y="78.8857">事务日志(Redo log) *</text><path d="M319,64.8906 L329,64.8906 C344,64.8906 344,74.0391 359,74.0391 L369,74.0391 " fill="none" style="stroke:#A80036;stroke-width:1.0;"/><text fill="#000000" font-family="sans-serif" font-size="14" lengthAdjust="spacing" textLength="70" x="372" y="97.1826">二进制日志</text><path d="M319,64.8906 L329,64.8906 C344,64.8906 344,92.3359 359,92.3359 L369,92.3359 " fill="none" style="stroke:#A80036;stroke-width:1.0;"/><text fill="#000000" font-family="sans-serif" font-size="14" lengthAdjust="spacing" textLength="56" x="372" y="115.4795">中继日志</text><path d="M319,64.8906 L329,64.8906 C344,64.8906 344,110.6328 359,110.6328 L369,110.6328 " fill="none" style="stroke:#A80036;stroke-width:1.0;"/><path d="M76,603.2344 L86,603.2344 C101,603.2344 101,64.8906 116,64.8906 L126,64.8906 " fill="none" style="stroke:#A80036;stroke-width:1.0;"/><rect fill="#FEFECE" filter="url(#f1cunl4i46tswc)" height="36.2969" rx="12.5" ry="12.5" style="stroke:#A80036;stroke-width:1.5;" width="71" x="126" y="147.375"/><text fill="#000000" font-family="sans-serif" font-size="14" lengthAdjust="spacing" textLength="51" x="136" y="170.3701">InnoDB</text><rect fill="#FEFECE" filter="url(#f1cunl4i46tswc)" height="36.2969" rx="12.5" ry="12.5" style="stroke:#A80036;stroke-width:1.5;" width="159" x="247" y="147.375"/><text fill="#000000" font-family="sans-serif" font-size="14" lengthAdjust="spacing" textLength="28" x="257" y="170.3701">结构</text><a href="https://zhuanlan.zhihu.com/p/235458760" target="_top" title="https://zhuanlan.zhihu.com/p/235458760" xlink:actuate="onRequest" xlink:href="https://zhuanlan.zhihu.com/p/235458760" xlink:show="new" xlink:title="https://zhuanlan.zhihu.com/p/235458760" xlink:type="simple"><text fill="#0000FF" font-family="sans-serif" font-size="14" lengthAdjust="spacing" text-decoration="underline" textLength="107" x="289" y="170.3701">深入剖析InnoDB</text></a><text fill="#000000" font-family="sans-serif" font-size="14" lengthAdjust="spacing" textLength="152" x="459" y="133.7764">缓冲池（Buffer Pool）*</text><path d="M406,165.5234 L416,165.5234 C431,165.5234 431,128.9297 446,128.9297 L456,128.9297 " fill="none" style="stroke:#A80036;stroke-width:1.0;"/><text fill="#000000" font-family="sans-serif" font-size="14" lengthAdjust="spacing" textLength="176" x="459" y="152.0732">写缓冲区(Change Buffer) *</text><path d="M406,165.5234 L416,165.5234 C431,165.5234 431,147.2266 446,147.2266 L456,147.2266 " fill="none" style="stroke:#A80036;stroke-width:1.0;"/><text fill="#000000" font-family="sans-serif" font-size="14" lengthAdjust="spacing" textLength="171" x="459" y="170.3701">日志缓冲区（log Buffer）*</text><path d="M406,165.5234 L416,165.5234 C431,165.5234 431,165.5234 446,165.5234 L456,165.5234 " fill="none" style="stroke:#A80036;stroke-width:1.0;"/><text fill="#000000" font-family="sans-serif" font-size="14" lengthAdjust="spacing" textLength="113" x="459" y="188.667">自适应 Hash 索引</text><path d="M406,165.5234 L416,165.5234 C431,165.5234 431,183.8203 446,183.8203 L456,183.8203 " fill="none" style="stroke:#A80036;stroke-width:1.0;"/><text fill="#000000" font-family="sans-serif" font-size="14" lengthAdjust="spacing" textLength="134" x="459" y="206.9639">Double Write Buffer</text><path d="M406,165.5234 L416,165.5234 C431,165.5234 431,202.1172 446,202.1172 L456,202.1172 " fill="none" style="stroke:#A80036;stroke-width:1.0;"/><path d="M197,165.5234 L207,165.5234 C222,165.5234 222,165.5234 237,165.5234 L247,165.5234 " fill="none" style="stroke:#A80036;stroke-width:1.0;"/><path d="M76,603.2344 L86,603.2344 C101,603.2344 101,165.5234 116,165.5234 L126,165.5234 " fill="none" style="stroke:#A80036;stroke-width:1.0;"/><rect fill="#FEFECE" filter="url(#f1cunl4i46tswc)" height="36.2969" rx="12.5" ry="12.5" style="stroke:#A80036;stroke-width:1.5;" width="53" x="126" y="314.8594"/><text fill="#000000" font-family="sans-serif" font-size="14" lengthAdjust="spacing" textLength="33" x="136" y="337.8545">ACID</text><rect fill="#FEFECE" filter="url(#f1cunl4i46tswc)" height="36.2969" rx="12.5" ry="12.5" style="stroke:#A80036;stroke-width:1.5;" width="178" x="229" y="221.2656"/><text fill="#000000" font-family="sans-serif" font-size="14" lengthAdjust="spacing" textLength="158" x="239" y="244.2607">Atomicity 中止（abort）</text><text fill="#000000" font-family="sans-serif" font-size="14" lengthAdjust="spacing" textLength="392" x="460" y="235.1123">能够在错误时中止事务，丢弃该事务进行的所有写入变更的能力</text><path d="M407,239.4141 L417,239.4141 C432,239.4141 432,230.2656 447,230.2656 L457,230.2656 " fill="none" style="stroke:#A80036;stroke-width:1.0;"/><text fill="#000000" font-family="sans-serif" font-size="14" lengthAdjust="spacing" textLength="28" x="460" y="253.4092">事物</text><path d="M407,239.4141 L417,239.4141 C432,239.4141 432,248.5625 447,248.5625 L457,248.5625 " fill="none" style="stroke:#A80036;stroke-width:1.0;"/><path d="M179,333.0078 L189,333.0078 C204,333.0078 204,239.4141 219,239.4141 L229,239.4141 " fill="none" style="stroke:#A80036;stroke-width:1.0;"/><rect fill="#FEFECE" filter="url(#f1cunl4i46tswc)" height="36.2969" rx="12.5" ry="12.5" style="stroke:#A80036;stroke-width:1.5;" width="244" x="229" y="277.5625"/><text fill="#000000" font-family="sans-serif" font-size="14" lengthAdjust="spacing" textLength="224" x="239" y="300.5576">Consistency 不变量（invariants）</text><text fill="#000000" font-family="sans-serif" font-size="14" lengthAdjust="spacing" textLength="125" x="526" y="300.5576">doublewrite buffer</text><path d="M473,295.7109 L483,295.7109 C498,295.7109 498,295.7109 513,295.7109 L523,295.7109 " fill="none" style="stroke:#A80036;stroke-width:1.0;"/><path d="M179,333.0078 L189,333.0078 C204,333.0078 204,295.7109 219,295.7109 L229,295.7109 " fill="none" style="stroke:#A80036;stroke-width:1.0;"/><rect fill="#FEFECE" filter="url(#f1cunl4i46tswc)" height="36.2969" rx="12.5" ry="12.5" style="stroke:#A80036;stroke-width:1.5;" width="77" x="229" y="343.0078"/><text fill="#000000" font-family="sans-serif" font-size="14" lengthAdjust="spacing" textLength="57" x="239" y="366.0029">Isolation</text><text fill="#000000" font-family="sans-serif" font-size="14" lengthAdjust="spacing" textLength="14" x="359" y="337.8545">锁</text><path d="M306,361.1563 L316,361.1563 C331,361.1563 331,333.0078 346,333.0078 L356,333.0078 " fill="none" style="stroke:#A80036;stroke-width:1.0;"/><rect fill="#FEFECE" filter="url(#f1cunl4i46tswc)" height="36.2969" rx="12.5" ry="12.5" style="stroke:#A80036;stroke-width:1.5;" width="104" x="356" y="352.1563"/><text fill="#000000" font-family="sans-serif" font-size="14" lengthAdjust="spacing" textLength="84" x="366" y="375.1514">事物隔离级别</text><path d="M306,361.1563 L316,361.1563 C331,361.1563 331,370.3047 346,370.3047 L356,370.3047 " fill="none" style="stroke:#A80036;stroke-width:1.0;"/><path d="M179,333.0078 L189,333.0078 C204,333.0078 204,361.1563 219,361.1563 L229,361.1563 " fill="none" style="stroke:#A80036;stroke-width:1.0;"/><rect fill="#FEFECE" filter="url(#f1cunl4i46tswc)" height="36.2969" rx="12.5" ry="12.5" style="stroke:#A80036;stroke-width:1.5;" width="83" x="229" y="408.4531"/><text fill="#000000" font-family="sans-serif" font-size="14" lengthAdjust="spacing" textLength="63" x="239" y="431.4482">Durability</text><text fill="#000000" font-family="sans-serif" font-size="14" lengthAdjust="spacing" textLength="125" x="365" y="422.2998">doublewrite buffer</text><path d="M312,426.6016 L322,426.6016 C337,426.6016 337,417.4531 352,417.4531 L362,417.4531 " fill="none" style="stroke:#A80036;stroke-width:1.0;"/><text fill="#000000" font-family="sans-serif" font-size="14" lengthAdjust="spacing" textLength="28" x="365" y="440.5967">运维</text><path d="M312,426.6016 L322,426.6016 C337,426.6016 337,435.75 352,435.75 L362,435.75 " fill="none" style="stroke:#A80036;stroke-width:1.0;"/><path d="M179,333.0078 L189,333.0078 C204,333.0078 204,426.6016 219,426.6016 L229,426.6016 " fill="none" style="stroke:#A80036;stroke-width:1.0;"/><path d="M76,603.2344 L86,603.2344 C101,603.2344 101,333.0078 116,333.0078 L126,333.0078 " fill="none" style="stroke:#A80036;stroke-width:1.0;"/><rect fill="#FEFECE" filter="url(#f1cunl4i46tswc)" height="36.2969" rx="12.5" ry="12.5" style="stroke:#A80036;stroke-width:1.5;" width="76" x="126" y="473.1953"/><text fill="#000000" font-family="sans-serif" font-size="14" lengthAdjust="spacing" textLength="56" x="136" y="496.1904">隔离级别</text><text fill="#000000" font-family="sans-serif" font-size="14" lengthAdjust="spacing" textLength="149" x="255" y="468.7451">READ UNCOMMITTED</text><path d="M202,491.3438 L212,491.3438 C227,491.3438 227,463.8984 242,463.8984 L252,463.8984 " fill="none" style="stroke:#A80036;stroke-width:1.0;"/><text fill="#000000" font-family="sans-serif" font-size="14" lengthAdjust="spacing" textLength="129" x="255" y="487.042">READ COMMITTED</text><path d="M202,491.3438 L212,491.3438 C227,491.3438 227,482.1953 242,482.1953 L252,482.1953 " fill="none" style="stroke:#A80036;stroke-width:1.0;"/><text fill="#000000" font-family="sans-serif" font-size="14" lengthAdjust="spacing" textLength="133" x="255" y="505.3389">REPEATABLE READ</text><path d="M202,491.3438 L212,491.3438 C227,491.3438 227,500.4922 242,500.4922 L252,500.4922 " fill="none" style="stroke:#A80036;stroke-width:1.0;"/><text fill="#000000" font-family="sans-serif" font-size="14" lengthAdjust="spacing" textLength="95" x="255" y="523.6357">SERIALIZABLE</text><path d="M202,491.3438 L212,491.3438 C227,491.3438 227,518.7891 242,518.7891 L252,518.7891 " fill="none" style="stroke:#A80036;stroke-width:1.0;"/><path d="M76,603.2344 L86,603.2344 C101,603.2344 101,491.3438 116,491.3438 L126,491.3438 " fill="none" style="stroke:#A80036;stroke-width:1.0;"/><rect fill="#FEFECE" filter="url(#f1cunl4i46tswc)" height="36.2969" rx="12.5" ry="12.5" style="stroke:#A80036;stroke-width:1.5;" width="61" x="126" y="529.4922"/><text fill="#000000" font-family="sans-serif" font-size="14" lengthAdjust="spacing" textLength="41" x="136" y="552.4873">MVCC</text><path d="M76,603.2344 L86,603.2344 C101,603.2344 101,547.6406 116,547.6406 L126,547.6406 " fill="none" style="stroke:#A80036;stroke-width:1.0;"/><rect fill="#FEFECE" filter="url(#f1cunl4i46tswc)" height="36.2969" rx="12.5" ry="12.5" style="stroke:#A80036;stroke-width:1.5;" width="48" x="126" y="585.7891"/><text fill="#000000" font-family="sans-serif" font-size="14" lengthAdjust="spacing" textLength="28" x="136" y="608.7842">幻读</text><path d="M76,603.2344 L86,603.2344 C101,603.2344 101,603.9375 116,603.9375 L126,603.9375 " fill="none" style="stroke:#A80036;stroke-width:1.0;"/><rect fill="#FEFECE" filter="url(#f1cunl4i46tswc)" height="36.2969" rx="12.5" ry="12.5" style="stroke:#A80036;stroke-width:1.5;" width="34" x="126" y="677.9766"/><text fill="#000000" font-family="sans-serif" font-size="14" lengthAdjust="spacing" textLength="14" x="136" y="700.9717">锁</text><text fill="#000000" font-family="sans-serif" font-size="14" lengthAdjust="spacing" textLength="190" x="213" y="646.0811">Shared and Exclusive Locks</text><path d="M160,696.125 L170,696.125 C185,696.125 185,641.2344 200,641.2344 L210,641.2344 " fill="none" style="stroke:#A80036;stroke-width:1.0;"/><text fill="#000000" font-family="sans-serif" font-size="14" lengthAdjust="spacing" textLength="105" x="213" y="664.3779">Intention Locks</text><path d="M160,696.125 L170,696.125 C185,696.125 185,659.5313 200,659.5313 L210,659.5313 " fill="none" style="stroke:#A80036;stroke-width:1.0;"/><text fill="#000000" font-family="sans-serif" font-size="14" lengthAdjust="spacing" textLength="94" x="213" y="682.6748">Record Locks</text><path d="M160,696.125 L170,696.125 C185,696.125 185,677.8281 200,677.8281 L210,677.8281 " fill="none" style="stroke:#A80036;stroke-width:1.0;"/><text fill="#000000" font-family="sans-serif" font-size="14" lengthAdjust="spacing" textLength="83" x="213" y="700.9717">Gap Locks *</text><path d="M160,696.125 L170,696.125 C185,696.125 185,696.125 200,696.125 L210,696.125 " fill="none" style="stroke:#A80036;stroke-width:1.0;"/><text fill="#000000" font-family="sans-serif" font-size="14" lengthAdjust="spacing" textLength="116" x="213" y="719.2686">Next-Key Locks *</text><path d="M160,696.125 L170,696.125 C185,696.125 185,714.4219 200,714.4219 L210,714.4219 " fill="none" style="stroke:#A80036;stroke-width:1.0;"/><text fill="#000000" font-family="sans-serif" font-size="14" lengthAdjust="spacing" textLength="148" x="213" y="737.5654">Insert Intention Locks</text><path d="M160,696.125 L170,696.125 C185,696.125 185,732.7188 200,732.7188 L210,732.7188 " fill="none" style="stroke:#A80036;stroke-width:1.0;"/><text fill="#000000" font-family="sans-serif" font-size="14" lengthAdjust="spacing" textLength="111" x="213" y="755.8623">AUTO-INC Locks</text><path d="M160,696.125 L170,696.125 C185,696.125 185,751.0156 200,751.0156 L210,751.0156 " fill="none" style="stroke:#A80036;stroke-width:1.0;"/><path d="M76,603.2344 L86,603.2344 C101,603.2344 101,696.125 116,696.125 L126,696.125 " fill="none" style="stroke:#A80036;stroke-width:1.0;"/><rect fill="#FEFECE" filter="url(#f1cunl4i46tswc)" height="36.2969" rx="12.5" ry="12.5" style="stroke:#A80036;stroke-width:1.5;" width="68" x="126" y="890.5"/><text fill="#000000" font-family="sans-serif" font-size="14" lengthAdjust="spacing" textLength="48" x="136" y="913.4951">explain</text><text fill="#000000" font-family="sans-serif" font-size="14" lengthAdjust="spacing" textLength="12" x="247" y="774.1592">id</text><path d="M194,908.6484 L204,908.6484 C219,908.6484 219,769.3125 234,769.3125 L244,769.3125 " fill="none" style="stroke:#A80036;stroke-width:1.0;"/><rect fill="#FEFECE" filter="url(#f1cunl4i46tswc)" height="36.2969" rx="12.5" ry="12.5" style="stroke:#A80036;stroke-width:1.5;" width="99" x="244" y="788.4609"/><text fill="#000000" font-family="sans-serif" font-size="14" lengthAdjust="spacing" textLength="79" x="254" y="811.4561">select_type</text><text fill="#000000" font-family="sans-serif" font-size="14" font-weight="bold" lengthAdjust="spacing" textLength="55" x="396" y="774.8623">SIMPLE</text><text fill="#000000" font-family="sans-serif" font-size="14" lengthAdjust="spacing" textLength="130" x="451" y="774.8623">: 无 union 或 子查询</text><path d="M343,806.6094 L353,806.6094 C368,806.6094 368,770.0156 383,770.0156 L393,770.0156 " fill="none" style="stroke:#A80036;stroke-width:1.0;"/><text fill="#000000" font-family="sans-serif" font-size="14" font-weight="bold" lengthAdjust="spacing" textLength="68" x="396" y="793.1592">PRIMARY</text><text fill="#000000" font-family="sans-serif" font-size="14" lengthAdjust="spacing" textLength="37" x="464" y="793.1592">: 最外</text><path d="M343,806.6094 L353,806.6094 C368,806.6094 368,788.3125 383,788.3125 L393,788.3125 " fill="none" style="stroke:#A80036;stroke-width:1.0;"/><text fill="#000000" font-family="sans-serif" font-size="14" font-weight="bold" lengthAdjust="spacing" textLength="83" x="396" y="811.4561">SUBQUERY</text><text fill="#000000" font-family="sans-serif" font-size="14" lengthAdjust="spacing" textLength="164" x="479" y="811.4561">: 子查询中第一个 SELECT</text><path d="M343,806.6094 L353,806.6094 C368,806.6094 368,806.6094 383,806.6094 L393,806.6094 " fill="none" style="stroke:#A80036;stroke-width:1.0;"/><text fill="#000000" font-family="sans-serif" font-size="14" font-weight="bold" lengthAdjust="spacing" textLength="65" x="396" y="829.7529">DERIVED</text><path d="M343,806.6094 L353,806.6094 C368,806.6094 368,824.9063 383,824.9063 L393,824.9063 " fill="none" style="stroke:#A80036;stroke-width:1.0;"/><text fill="#000000" font-family="sans-serif" font-size="14" font-weight="bold" lengthAdjust="spacing" textLength="112" x="396" y="848.0498">MATERIALIZED</text><path d="M343,806.6094 L353,806.6094 C368,806.6094 368,843.2031 383,843.2031 L393,843.2031 " fill="none" style="stroke:#A80036;stroke-width:1.0;"/><path d="M194,908.6484 L204,908.6484 C219,908.6484 219,806.6094 234,806.6094 L244,806.6094 " fill="none" style="stroke:#A80036;stroke-width:1.0;"/><rect fill="#FEFECE" filter="url(#f1cunl4i46tswc)" height="36.2969" rx="12.5" ry="12.5" style="stroke:#A80036;stroke-width:1.5;" width="50" x="244" y="844.7578"/><text fill="#000000" font-family="sans-serif" font-size="14" lengthAdjust="spacing" textLength="30" x="254" y="867.7529">type</text><path d="M194,908.6484 L204,908.6484 C219,908.6484 219,862.9063 234,862.9063 L244,862.9063 " fill="none" style="stroke:#A80036;stroke-width:1.0;"/><rect fill="#FEFECE" filter="url(#f1cunl4i46tswc)" height="36.2969" rx="12.5" ry="12.5" style="stroke:#A80036;stroke-width:1.5;" width="54" x="244" y="901.0547"/><text fill="#000000" font-family="sans-serif" font-size="14" lengthAdjust="spacing" textLength="34" x="254" y="924.0498">Extra</text><path d="M194,908.6484 L204,908.6484 C219,908.6484 219,919.2031 234,919.2031 L244,919.2031 " fill="none" style="stroke:#A80036;stroke-width:1.0;"/><text fill="#000000" font-family="sans-serif" font-size="14" lengthAdjust="spacing" textLength="97" x="247" y="961.3467">possible_keys</text><path d="M194,908.6484 L204,908.6484 C219,908.6484 219,956.5 234,956.5 L244,956.5 " fill="none" style="stroke:#A80036;stroke-width:1.0;"/><text fill="#000000" font-family="sans-serif" font-size="14" lengthAdjust="spacing" textLength="24" x="247" y="979.6436">key</text><path d="M194,908.6484 L204,908.6484 C219,908.6484 219,974.7969 234,974.7969 L244,974.7969 " fill="none" style="stroke:#A80036;stroke-width:1.0;"/><text fill="#000000" font-family="sans-serif" font-size="14" lengthAdjust="spacing" textLength="177" x="247" y="997.9404">key_len: 使用的 key 的长度</text><path d="M194,908.6484 L204,908.6484 C219,908.6484 219,993.0938 234,993.0938 L244,993.0938 " fill="none" style="stroke:#A80036;stroke-width:1.0;"/><text fill="#000000" font-family="sans-serif" font-size="14" lengthAdjust="spacing" textLength="33" x="247" y="1016.2373">rows</text><path d="M194,908.6484 L204,908.6484 C219,908.6484 219,1011.3906 234,1011.3906 L244,1011.3906 " fill="none" style="stroke:#A80036;stroke-width:1.0;"/><text fill="#000000" font-family="sans-serif" font-size="14" lengthAdjust="spacing" textLength="38" x="247" y="1034.5342">filterd</text><path d="M194,908.6484 L204,908.6484 C219,908.6484 219,1029.6875 234,1029.6875 L244,1029.6875 " fill="none" style="stroke:#A80036;stroke-width:1.0;"/><text fill="#000000" font-family="sans-serif" font-size="14" lengthAdjust="spacing" textLength="34" x="247" y="1052.8311">extra</text><path d="M194,908.6484 L204,908.6484 C219,908.6484 219,1047.9844 234,1047.9844 L244,1047.9844 " fill="none" style="stroke:#A80036;stroke-width:1.0;"/><path d="M76,603.2344 L86,603.2344 C101,603.2344 101,908.6484 116,908.6484 L126,908.6484 " fill="none" style="stroke:#A80036;stroke-width:1.0;"/><rect fill="#FEFECE" filter="url(#f1cunl4i46tswc)" height="36.2969" rx="12.5" ry="12.5" style="stroke:#A80036;stroke-width:1.5;" width="48" x="126" y="1085.4297"/><text fill="#000000" font-family="sans-serif" font-size="14" lengthAdjust="spacing" textLength="28" x="136" y="1108.4248">索引</text><rect fill="#FEFECE" filter="url(#f1cunl4i46tswc)" height="36.2969" rx="12.5" ry="12.5" style="stroke:#A80036;stroke-width:1.5;" width="48" x="224" y="1067.1328"/><text fill="#000000" font-family="sans-serif" font-size="14" lengthAdjust="spacing" textLength="28" x="234" y="1090.1279">种类</text><text fill="#000000" font-family="sans-serif" font-size="14" lengthAdjust="spacing" textLength="56" x="325" y="1071.8311">聚簇索引</text><path d="M272,1085.2813 L282,1085.2813 C297,1085.2813 297,1066.9844 312,1066.9844 L322,1066.9844 " fill="none" style="stroke:#A80036;stroke-width:1.0;"/><text fill="#000000" font-family="sans-serif" font-size="14" lengthAdjust="spacing" textLength="56" x="325" y="1090.1279">二级索引</text><path d="M272,1085.2813 L282,1085.2813 C297,1085.2813 297,1085.2813 312,1085.2813 L322,1085.2813 " fill="none" style="stroke:#A80036;stroke-width:1.0;"/><text fill="#000000" font-family="sans-serif" font-size="14" lengthAdjust="spacing" textLength="56" x="325" y="1108.4248">覆盖索引</text><path d="M272,1085.2813 L282,1085.2813 C297,1085.2813 297,1103.5781 312,1103.5781 L322,1103.5781 " fill="none" style="stroke:#A80036;stroke-width:1.0;"/><path d="M174,1103.5781 L184,1103.5781 C199,1103.5781 199,1085.2813 214,1085.2813 L224,1085.2813 " fill="none" style="stroke:#A80036;stroke-width:1.0;"/><text fill="#000000" font-family="sans-serif" font-size="14" lengthAdjust="spacing" textLength="168" x="227" y="1127.4248">自动生成的主键有什么问题</text><path d="M174,1103.5781 L184,1103.5781 C199,1103.5781 199,1122.5781 214,1122.5781 L224,1122.5781 " fill="none" style="stroke:#A80036;stroke-width:1.0;"/><text fill="#000000" font-family="sans-serif" font-size="14" lengthAdjust="spacing" textLength="112" x="227" y="1145.7217">什么情况索引失效</text><path d="M174,1103.5781 L184,1103.5781 C199,1103.5781 199,1140.875 214,1140.875 L224,1140.875 " fill="none" style="stroke:#A80036;stroke-width:1.0;"/><path d="M76,603.2344 L86,603.2344 C101,603.2344 101,1103.5781 116,1103.5781 L126,1103.5781 " fill="none" style="stroke:#A80036;stroke-width:1.0;"/><rect fill="#FEFECE" filter="url(#f1cunl4i46tswc)" height="36.2969" rx="12.5" ry="12.5" style="stroke:#A80036;stroke-width:1.5;" width="48" x="126" y="1150.1719"/><text fill="#000000" font-family="sans-serif" font-size="14" lengthAdjust="spacing" textLength="28" x="136" y="1173.167">运维</text><text fill="#000000" font-family="sans-serif" font-size="14" lengthAdjust="spacing" textLength="238" x="227" y="1164.0186">一张大表怎么更改表的数据结构，字段</text><path d="M174,1168.3203 L184,1168.3203 C199,1168.3203 199,1159.1719 214,1159.1719 L224,1159.1719 " fill="none" style="stroke:#A80036;stroke-width:1.0;"/><text fill="#000000" font-family="sans-serif" font-size="14" lengthAdjust="spacing" textLength="124" x="227" y="1182.3154">自增id用完了怎么办</text><path d="M174,1168.3203 L184,1168.3203 C199,1168.3203 199,1177.4688 214,1177.4688 L224,1177.4688 " fill="none" style="stroke:#A80036;stroke-width:1.0;"/><path d="M76,603.2344 L86,603.2344 C101,603.2344 101,1168.3203 116,1168.3203 L126,1168.3203 " fill="none" style="stroke:#A80036;stroke-width:1.0;"/><!--MD5=[da6059607d9dd2693921c4855492dfa3]
@startmindmap MySQL 脑图


* MySQL

** Log [[https://zhuanlan.zhihu.com/p/58011817 MySQL日志分类及简介]]
***_ 错误日志
***_ 查询日志
***_ 慢查询日志 *
***_ 事务日志(Redo log) *
***_ 二进制日志
***_ 中继日志

** InnoDB
*** 结构 [[https://zhuanlan.zhihu.com/p/235458760 深入剖析InnoDB]]
****_ 缓冲池（Buffer Pool）*
****_ 写缓冲区(Change Buffer) *
****_ 日志缓冲区（log Buffer）*
****_ 自适应 Hash 索引
****_ Double Write Buffer

** ACID
*** Atomicity 中止（abort）
****_ 能够在错误时中止事务，丢弃该事务进行的所有写入变更的能力
****_ 事物

*** Consistency 不变量（invariants）
****_ doublewrite buffer

*** Isolation
****_ 锁
**** 事物隔离级别
' *****_ 读已提交（Read Committed）

*** Durability
****_ doublewrite buffer
****_ 运维

** 隔离级别
***_  READ UNCOMMITTED
***_  READ COMMITTED
***_  REPEATABLE READ
***_  SERIALIZABLE
** MVCC
** 幻读


** 锁
***_ Shared and Exclusive Locks
***_ Intention Locks
***_ Record Locks
***_ Gap Locks *
***_ Next-Key Locks *
***_ Insert Intention Locks
***_ AUTO-INC Locks

** explain
***_ id
*** select_type
****_ **SIMPLE**: 无 union 或 子查询
****_ **PRIMARY**: 最外
****_ **SUBQUERY**: 子查询中第一个 SELECT
****_ **DERIVED**
****_ **MATERIALIZED**

*** type
*** Extra
***_ possible_keys
***_ key 
***_ key_len: 使用的 key 的长度
***_ rows
***_ filterd
***_ extra


** 索引
*** 种类
****_ 聚簇索引
****_ 二级索引
****_ 覆盖索引
***_ 自动生成的主键有什么问题
***_ 什么情况索引失效

** 运维
***_ 一张大表怎么更改表的数据结构，字段
***_ 自增id用完了怎么办

@endmindmap

@startmindmap MySQL 脑图


* MySQL

** Log [[https://zhuanlan.zhihu.com/p/58011817 MySQL日志分类及简介]]
***_ 错误日志
***_ 查询日志
***_ 慢查询日志 *
***_ 事务日志(Redo log) *
***_ 二进制日志
***_ 中继日志

** InnoDB
*** 结构 [[https://zhuanlan.zhihu.com/p/235458760 深入剖析InnoDB]]
****_ 缓冲池（Buffer Pool）*
****_ 写缓冲区(Change Buffer) *
****_ 日志缓冲区（log Buffer）*
****_ 自适应 Hash 索引
****_ Double Write Buffer

** ACID
*** Atomicity 中止（abort）
****_ 能够在错误时中止事务，丢弃该事务进行的所有写入变更的能力
****_ 事物

*** Consistency 不变量（invariants）
****_ doublewrite buffer

*** Isolation
****_ 锁
**** 事物隔离级别

*** Durability
****_ doublewrite buffer
****_ 运维

** 隔离级别
***_  READ UNCOMMITTED
***_  READ COMMITTED
***_  REPEATABLE READ
***_  SERIALIZABLE
** MVCC
** 幻读


** 锁
***_ Shared and Exclusive Locks
***_ Intention Locks
***_ Record Locks
***_ Gap Locks *
***_ Next-Key Locks *
***_ Insert Intention Locks
***_ AUTO-INC Locks

** explain
***_ id
*** select_type
****_ **SIMPLE**: 无 union 或 子查询
****_ **PRIMARY**: 最外
****_ **SUBQUERY**: 子查询中第一个 SELECT
****_ **DERIVED**
****_ **MATERIALIZED**

*** type
*** Extra
***_ possible_keys
***_ key 
***_ key_len: 使用的 key 的长度
***_ rows
***_ filterd
***_ extra


** 索引
*** 种类
****_ 聚簇索引
****_ 二级索引
****_ 覆盖索引
***_ 自动生成的主键有什么问题
***_ 什么情况索引失效

** 运维
***_ 一张大表怎么更改表的数据结构，字段
***_ 自增id用完了怎么办

@endmindmap

PlantUML version 1.2021.6(Fri May 14 07:09:51 UTC 2021)
(GPL source distribution)
Java Runtime: OpenJDK Runtime Environment
JVM: OpenJDK 64-Bit Server VM
Default Encoding: UTF-8
Language: en
Country: null
--></g></svg>