<?xml version="1.0" encoding="UTF-8" standalone="no"?><svg xmlns="http://www.w3.org/2000/svg" xmlns:xlink="http://www.w3.org/1999/xlink" contentScriptType="application/ecmascript" contentStyleType="text/css" height="644px" preserveAspectRatio="none" style="width:1431px;height:644px;background:#FFFFFF;" version="1.1" viewBox="0 0 1431 644" width="1431px" zoomAndPan="magnify"><defs><filter height="300%" id="fv1cmf50mpwtd" width="300%" x="-1" y="-1"><feGaussianBlur result="blurOut" stdDeviation="2.0"/><feColorMatrix in="blurOut" result="blurOut2" type="matrix" values="0 0 0 0 0 0 0 0 0 0 0 0 0 0 0 0 0 0 .4 0"/><feOffset dx="4.0" dy="4.0" in="blurOut2" result="blurOut3"/><feBlend in="SourceGraphic" in2="blurOut3" mode="normal"/></filter></defs><g><rect fill="#FEFECE" filter="url(#fv1cmf50mpwtd)" height="36.2969" rx="12.5" ry="12.5" style="stroke:#A80036;stroke-width:1.5;" width="66" x="577" y="302.8945"/><text fill="#000000" font-family="sans-serif" font-size="14" lengthAdjust="spacing" textLength="46" x="587" y="325.8896">MySQL</text><rect fill="#FEFECE" filter="url(#fv1cmf50mpwtd)" height="36.2969" rx="12.5" ry="12.5" style="stroke:#A80036;stroke-width:1.5;" width="193" x="693" y="46.7422"/><text fill="#000000" font-family="sans-serif" font-size="14" lengthAdjust="spacing" textLength="25" x="703" y="69.7373">Log</text><a href="https://zhuanlan.zhihu.com/p/58011817" target="_top" title="https://zhuanlan.zhihu.com/p/58011817" xlink:actuate="onRequest" xlink:href="https://zhuanlan.zhihu.com/p/58011817" xlink:show="new" xlink:title="https://zhuanlan.zhihu.com/p/58011817" xlink:type="simple"><text fill="#0000FF" font-family="sans-serif" font-size="14" lengthAdjust="spacing" text-decoration="underline" textLength="144" x="732" y="69.7373">MySQL日志分类及简介</text></a><text fill="#000000" font-family="sans-serif" font-size="14" lengthAdjust="spacing" textLength="56" x="939" y="23.9951">错误日志</text><path d="M886,64.8906 L896,64.8906 C911,64.8906 911,19.1484 926,19.1484 L936,19.1484 " fill="none" style="stroke:#A80036;stroke-width:1.0;"/><text fill="#000000" font-family="sans-serif" font-size="14" lengthAdjust="spacing" textLength="56" x="939" y="42.292">查询日志</text><path d="M886,64.8906 L896,64.8906 C911,64.8906 911,37.4453 926,37.4453 L936,37.4453 " fill="none" style="stroke:#A80036;stroke-width:1.0;"/><text fill="#000000" font-family="sans-serif" font-size="14" lengthAdjust="spacing" textLength="81" x="939" y="60.5889">慢查询日志 *</text><path d="M886,64.8906 L896,64.8906 C911,64.8906 911,55.7422 926,55.7422 L936,55.7422 " fill="none" style="stroke:#A80036;stroke-width:1.0;"/><text fill="#000000" font-family="sans-serif" font-size="14" lengthAdjust="spacing" textLength="139" x="939" y="78.8857">事务日志(Redo log) *</text><path d="M886,64.8906 L896,64.8906 C911,64.8906 911,74.0391 926,74.0391 L936,74.0391 " fill="none" style="stroke:#A80036;stroke-width:1.0;"/><text fill="#000000" font-family="sans-serif" font-size="14" lengthAdjust="spacing" textLength="70" x="939" y="97.1826">二进制日志</text><path d="M886,64.8906 L896,64.8906 C911,64.8906 911,92.3359 926,92.3359 L936,92.3359 " fill="none" style="stroke:#A80036;stroke-width:1.0;"/><text fill="#000000" font-family="sans-serif" font-size="14" lengthAdjust="spacing" textLength="56" x="939" y="115.4795">中继日志</text><path d="M886,64.8906 L896,64.8906 C911,64.8906 911,110.6328 926,110.6328 L936,110.6328 " fill="none" style="stroke:#A80036;stroke-width:1.0;"/><path d="M643,321.043 L653,321.043 C668,321.043 668,64.8906 683,64.8906 L693,64.8906 " fill="none" style="stroke:#A80036;stroke-width:1.0;"/><rect fill="#FEFECE" filter="url(#fv1cmf50mpwtd)" height="36.2969" rx="12.5" ry="12.5" style="stroke:#A80036;stroke-width:1.5;" width="71" x="693" y="147.375"/><text fill="#000000" font-family="sans-serif" font-size="14" lengthAdjust="spacing" textLength="51" x="703" y="170.3701">InnoDB</text><rect fill="#FEFECE" filter="url(#fv1cmf50mpwtd)" height="36.2969" rx="12.5" ry="12.5" style="stroke:#A80036;stroke-width:1.5;" width="159" x="814" y="147.375"/><text fill="#000000" font-family="sans-serif" font-size="14" lengthAdjust="spacing" textLength="28" x="824" y="170.3701">结构</text><a href="https://zhuanlan.zhihu.com/p/235458760" target="_top" title="https://zhuanlan.zhihu.com/p/235458760" xlink:actuate="onRequest" xlink:href="https://zhuanlan.zhihu.com/p/235458760" xlink:show="new" xlink:title="https://zhuanlan.zhihu.com/p/235458760" xlink:type="simple"><text fill="#0000FF" font-family="sans-serif" font-size="14" lengthAdjust="spacing" text-decoration="underline" textLength="107" x="856" y="170.3701">深入剖析InnoDB</text></a><text fill="#000000" font-family="sans-serif" font-size="14" lengthAdjust="spacing" textLength="152" x="1026" y="133.7764">缓冲池（Buffer Pool）*</text><path d="M973,165.5234 L983,165.5234 C998,165.5234 998,128.9297 1013,128.9297 L1023,128.9297 " fill="none" style="stroke:#A80036;stroke-width:1.0;"/><text fill="#000000" font-family="sans-serif" font-size="14" lengthAdjust="spacing" textLength="176" x="1026" y="152.0732">写缓冲区(Change Buffer) *</text><path d="M973,165.5234 L983,165.5234 C998,165.5234 998,147.2266 1013,147.2266 L1023,147.2266 " fill="none" style="stroke:#A80036;stroke-width:1.0;"/><text fill="#000000" font-family="sans-serif" font-size="14" lengthAdjust="spacing" textLength="171" x="1026" y="170.3701">日志缓冲区（log Buffer）*</text><path d="M973,165.5234 L983,165.5234 C998,165.5234 998,165.5234 1013,165.5234 L1023,165.5234 " fill="none" style="stroke:#A80036;stroke-width:1.0;"/><text fill="#000000" font-family="sans-serif" font-size="14" lengthAdjust="spacing" textLength="113" x="1026" y="188.667">自适应 Hash 索引</text><path d="M973,165.5234 L983,165.5234 C998,165.5234 998,183.8203 1013,183.8203 L1023,183.8203 " fill="none" style="stroke:#A80036;stroke-width:1.0;"/><text fill="#000000" font-family="sans-serif" font-size="14" lengthAdjust="spacing" textLength="134" x="1026" y="206.9639">Double Write Buffer</text><path d="M973,165.5234 L983,165.5234 C998,165.5234 998,202.1172 1013,202.1172 L1023,202.1172 " fill="none" style="stroke:#A80036;stroke-width:1.0;"/><path d="M764,165.5234 L774,165.5234 C789,165.5234 789,165.5234 804,165.5234 L814,165.5234 " fill="none" style="stroke:#A80036;stroke-width:1.0;"/><path d="M643,321.043 L653,321.043 C668,321.043 668,165.5234 683,165.5234 L693,165.5234 " fill="none" style="stroke:#A80036;stroke-width:1.0;"/><rect fill="#FEFECE" filter="url(#fv1cmf50mpwtd)" height="36.2969" rx="12.5" ry="12.5" style="stroke:#A80036;stroke-width:1.5;" width="53" x="693" y="314.8594"/><text fill="#000000" font-family="sans-serif" font-size="14" lengthAdjust="spacing" textLength="33" x="703" y="337.8545">ACID</text><rect fill="#FEFECE" filter="url(#fv1cmf50mpwtd)" height="36.2969" rx="12.5" ry="12.5" style="stroke:#A80036;stroke-width:1.5;" width="178" x="796" y="221.2656"/><text fill="#000000" font-family="sans-serif" font-size="14" lengthAdjust="spacing" textLength="158" x="806" y="244.2607">Atomicity 中止（abort）</text><text fill="#000000" font-family="sans-serif" font-size="14" lengthAdjust="spacing" textLength="392" x="1027" y="235.1123">能够在错误时中止事务，丢弃该事务进行的所有写入变更的能力</text><path d="M974,239.4141 L984,239.4141 C999,239.4141 999,230.2656 1014,230.2656 L1024,230.2656 " fill="none" style="stroke:#A80036;stroke-width:1.0;"/><text fill="#000000" font-family="sans-serif" font-size="14" lengthAdjust="spacing" textLength="28" x="1027" y="253.4092">事物</text><path d="M974,239.4141 L984,239.4141 C999,239.4141 999,248.5625 1014,248.5625 L1024,248.5625 " fill="none" style="stroke:#A80036;stroke-width:1.0;"/><path d="M746,333.0078 L756,333.0078 C771,333.0078 771,239.4141 786,239.4141 L796,239.4141 " fill="none" style="stroke:#A80036;stroke-width:1.0;"/><rect fill="#FEFECE" filter="url(#fv1cmf50mpwtd)" height="36.2969" rx="12.5" ry="12.5" style="stroke:#A80036;stroke-width:1.5;" width="244" x="796" y="277.5625"/><text fill="#000000" font-family="sans-serif" font-size="14" lengthAdjust="spacing" textLength="224" x="806" y="300.5576">Consistency 不变量（invariants）</text><text fill="#000000" font-family="sans-serif" font-size="14" lengthAdjust="spacing" textLength="125" x="1093" y="300.5576">doublewrite buffer</text><path d="M1040,295.7109 L1050,295.7109 C1065,295.7109 1065,295.7109 1080,295.7109 L1090,295.7109 " fill="none" style="stroke:#A80036;stroke-width:1.0;"/><path d="M746,333.0078 L756,333.0078 C771,333.0078 771,295.7109 786,295.7109 L796,295.7109 " fill="none" style="stroke:#A80036;stroke-width:1.0;"/><rect fill="#FEFECE" filter="url(#fv1cmf50mpwtd)" height="36.2969" rx="12.5" ry="12.5" style="stroke:#A80036;stroke-width:1.5;" width="77" x="796" y="343.0078"/><text fill="#000000" font-family="sans-serif" font-size="14" lengthAdjust="spacing" textLength="57" x="806" y="366.0029">Isolation</text><text fill="#000000" font-family="sans-serif" font-size="14" lengthAdjust="spacing" textLength="14" x="926" y="337.8545">锁</text><path d="M873,361.1563 L883,361.1563 C898,361.1563 898,333.0078 913,333.0078 L923,333.0078 " fill="none" style="stroke:#A80036;stroke-width:1.0;"/><rect fill="#FEFECE" filter="url(#fv1cmf50mpwtd)" height="36.2969" rx="12.5" ry="12.5" style="stroke:#A80036;stroke-width:1.5;" width="104" x="923" y="352.1563"/><text fill="#000000" font-family="sans-serif" font-size="14" lengthAdjust="spacing" textLength="84" x="933" y="375.1514">事物隔离级别</text><path d="M873,361.1563 L883,361.1563 C898,361.1563 898,370.3047 913,370.3047 L923,370.3047 " fill="none" style="stroke:#A80036;stroke-width:1.0;"/><path d="M746,333.0078 L756,333.0078 C771,333.0078 771,361.1563 786,361.1563 L796,361.1563 " fill="none" style="stroke:#A80036;stroke-width:1.0;"/><rect fill="#FEFECE" filter="url(#fv1cmf50mpwtd)" height="36.2969" rx="12.5" ry="12.5" style="stroke:#A80036;stroke-width:1.5;" width="83" x="796" y="408.4531"/><text fill="#000000" font-family="sans-serif" font-size="14" lengthAdjust="spacing" textLength="63" x="806" y="431.4482">Durability</text><text fill="#000000" font-family="sans-serif" font-size="14" lengthAdjust="spacing" textLength="125" x="932" y="422.2998">doublewrite buffer</text><path d="M879,426.6016 L889,426.6016 C904,426.6016 904,417.4531 919,417.4531 L929,417.4531 " fill="none" style="stroke:#A80036;stroke-width:1.0;"/><text fill="#000000" font-family="sans-serif" font-size="14" lengthAdjust="spacing" textLength="28" x="932" y="440.5967">运维</text><path d="M879,426.6016 L889,426.6016 C904,426.6016 904,435.75 919,435.75 L929,435.75 " fill="none" style="stroke:#A80036;stroke-width:1.0;"/><path d="M746,333.0078 L756,333.0078 C771,333.0078 771,426.6016 786,426.6016 L796,426.6016 " fill="none" style="stroke:#A80036;stroke-width:1.0;"/><path d="M643,321.043 L653,321.043 C668,321.043 668,333.0078 683,333.0078 L693,333.0078 " fill="none" style="stroke:#A80036;stroke-width:1.0;"/><rect fill="#FEFECE" filter="url(#fv1cmf50mpwtd)" height="36.2969" rx="12.5" ry="12.5" style="stroke:#A80036;stroke-width:1.5;" width="76" x="693" y="473.1953"/><text fill="#000000" font-family="sans-serif" font-size="14" lengthAdjust="spacing" textLength="56" x="703" y="496.1904">隔离级别</text><text fill="#000000" font-family="sans-serif" font-size="14" lengthAdjust="spacing" textLength="149" x="822" y="468.7451">READ UNCOMMITTED</text><path d="M769,491.3438 L779,491.3438 C794,491.3438 794,463.8984 809,463.8984 L819,463.8984 " fill="none" style="stroke:#A80036;stroke-width:1.0;"/><text fill="#000000" font-family="sans-serif" font-size="14" lengthAdjust="spacing" textLength="129" x="822" y="487.042">READ COMMITTED</text><path d="M769,491.3438 L779,491.3438 C794,491.3438 794,482.1953 809,482.1953 L819,482.1953 " fill="none" style="stroke:#A80036;stroke-width:1.0;"/><text fill="#000000" font-family="sans-serif" font-size="14" lengthAdjust="spacing" textLength="133" x="822" y="505.3389">REPEATABLE READ</text><path d="M769,491.3438 L779,491.3438 C794,491.3438 794,500.4922 809,500.4922 L819,500.4922 " fill="none" style="stroke:#A80036;stroke-width:1.0;"/><text fill="#000000" font-family="sans-serif" font-size="14" lengthAdjust="spacing" textLength="95" x="822" y="523.6357">SERIALIZABLE</text><path d="M769,491.3438 L779,491.3438 C794,491.3438 794,518.7891 809,518.7891 L819,518.7891 " fill="none" style="stroke:#A80036;stroke-width:1.0;"/><path d="M643,321.043 L653,321.043 C668,321.043 668,491.3438 683,491.3438 L693,491.3438 " fill="none" style="stroke:#A80036;stroke-width:1.0;"/><rect fill="#FEFECE" filter="url(#fv1cmf50mpwtd)" height="36.2969" rx="12.5" ry="12.5" style="stroke:#A80036;stroke-width:1.5;" width="61" x="693" y="529.4922"/><text fill="#000000" font-family="sans-serif" font-size="14" lengthAdjust="spacing" textLength="41" x="703" y="552.4873">MVCC</text><path d="M643,321.043 L653,321.043 C668,321.043 668,547.6406 683,547.6406 L693,547.6406 " fill="none" style="stroke:#A80036;stroke-width:1.0;"/><rect fill="#FEFECE" filter="url(#fv1cmf50mpwtd)" height="36.2969" rx="12.5" ry="12.5" style="stroke:#A80036;stroke-width:1.5;" width="48" x="693" y="585.7891"/><text fill="#000000" font-family="sans-serif" font-size="14" lengthAdjust="spacing" textLength="28" x="703" y="608.7842">幻读</text><path d="M643,321.043 L653,321.043 C668,321.043 668,603.9375 683,603.9375 L693,603.9375 " fill="none" style="stroke:#A80036;stroke-width:1.0;"/><rect fill="#FEFECE" filter="url(#fv1cmf50mpwtd)" height="36.2969" rx="12.5" ry="12.5" style="stroke:#A80036;stroke-width:1.5;" width="34" x="493" y="84.7422"/><text fill="#000000" font-family="sans-serif" font-size="14" lengthAdjust="spacing" textLength="14" x="503" y="107.7373">锁</text><text fill="#000000" font-family="sans-serif" font-size="14" lengthAdjust="spacing" textLength="190" x="250" y="52.8467">Shared and Exclusive Locks</text><path d="M493,102.8906 L483,102.8906 C468,102.8906 468,48 453,48 L443,48 " fill="none" style="stroke:#A80036;stroke-width:1.0;"/><text fill="#000000" font-family="sans-serif" font-size="14" lengthAdjust="spacing" textLength="105" x="335" y="71.1436">Intention Locks</text><path d="M493,102.8906 L483,102.8906 C468,102.8906 468,66.2969 453,66.2969 L443,66.2969 " fill="none" style="stroke:#A80036;stroke-width:1.0;"/><text fill="#000000" font-family="sans-serif" font-size="14" lengthAdjust="spacing" textLength="94" x="346" y="89.4404">Record Locks</text><path d="M493,102.8906 L483,102.8906 C468,102.8906 468,84.5938 453,84.5938 L443,84.5938 " fill="none" style="stroke:#A80036;stroke-width:1.0;"/><text fill="#000000" font-family="sans-serif" font-size="14" lengthAdjust="spacing" textLength="83" x="357" y="107.7373">Gap Locks *</text><path d="M493,102.8906 L483,102.8906 C468,102.8906 468,102.8906 453,102.8906 L443,102.8906 " fill="none" style="stroke:#A80036;stroke-width:1.0;"/><text fill="#000000" font-family="sans-serif" font-size="14" lengthAdjust="spacing" textLength="116" x="324" y="126.0342">Next-Key Locks *</text><path d="M493,102.8906 L483,102.8906 C468,102.8906 468,121.1875 453,121.1875 L443,121.1875 " fill="none" style="stroke:#A80036;stroke-width:1.0;"/><text fill="#000000" font-family="sans-serif" font-size="14" lengthAdjust="spacing" textLength="148" x="292" y="144.3311">Insert Intention Locks</text><path d="M493,102.8906 L483,102.8906 C468,102.8906 468,139.4844 453,139.4844 L443,139.4844 " fill="none" style="stroke:#A80036;stroke-width:1.0;"/><text fill="#000000" font-family="sans-serif" font-size="14" lengthAdjust="spacing" textLength="111" x="329" y="162.6279">AUTO-INC Locks</text><path d="M493,102.8906 L483,102.8906 C468,102.8906 468,157.7813 453,157.7813 L443,157.7813 " fill="none" style="stroke:#A80036;stroke-width:1.0;"/><path d="M577,321.043 L567,321.043 C552,321.043 552,102.8906 537,102.8906 L527,102.8906 " fill="none" style="stroke:#A80036;stroke-width:1.0;"/><rect fill="#FEFECE" filter="url(#fv1cmf50mpwtd)" height="36.2969" rx="12.5" ry="12.5" style="stroke:#A80036;stroke-width:1.5;" width="68" x="459" y="297.2656"/><text fill="#000000" font-family="sans-serif" font-size="14" lengthAdjust="spacing" textLength="48" x="469" y="320.2607">explain</text><text fill="#000000" font-family="sans-serif" font-size="14" lengthAdjust="spacing" textLength="12" x="394" y="180.9248">id</text><path d="M459,315.4141 L449,315.4141 C434,315.4141 434,176.0781 419,176.0781 L409,176.0781 " fill="none" style="stroke:#A80036;stroke-width:1.0;"/><rect fill="#FEFECE" filter="url(#fv1cmf50mpwtd)" height="36.2969" rx="12.5" ry="12.5" style="stroke:#A80036;stroke-width:1.5;" width="99" x="310" y="195.2266"/><text fill="#000000" font-family="sans-serif" font-size="14" lengthAdjust="spacing" textLength="79" x="320" y="218.2217">select_type</text><text fill="#000000" font-family="sans-serif" font-size="14" font-weight="bold" lengthAdjust="spacing" textLength="55" x="72" y="181.6279">SIMPLE</text><text fill="#000000" font-family="sans-serif" font-size="14" lengthAdjust="spacing" textLength="130" x="127" y="181.6279">: 无 union 或 子查询</text><path d="M310,213.375 L300,213.375 C285,213.375 285,176.7813 270,176.7813 L260,176.7813 " fill="none" style="stroke:#A80036;stroke-width:1.0;"/><text fill="#000000" font-family="sans-serif" font-size="14" font-weight="bold" lengthAdjust="spacing" textLength="68" x="152" y="199.9248">PRIMARY</text><text fill="#000000" font-family="sans-serif" font-size="14" lengthAdjust="spacing" textLength="37" x="220" y="199.9248">: 最外</text><path d="M310,213.375 L300,213.375 C285,213.375 285,195.0781 270,195.0781 L260,195.0781 " fill="none" style="stroke:#A80036;stroke-width:1.0;"/><text fill="#000000" font-family="sans-serif" font-size="14" font-weight="bold" lengthAdjust="spacing" textLength="83" x="10" y="218.2217">SUBQUERY</text><text fill="#000000" font-family="sans-serif" font-size="14" lengthAdjust="spacing" textLength="164" x="93" y="218.2217">: 子查询中第一个 SELECT</text><path d="M310,213.375 L300,213.375 C285,213.375 285,213.375 270,213.375 L260,213.375 " fill="none" style="stroke:#A80036;stroke-width:1.0;"/><text fill="#000000" font-family="sans-serif" font-size="14" font-weight="bold" lengthAdjust="spacing" textLength="65" x="192" y="236.5186">DERIVED</text><path d="M310,213.375 L300,213.375 C285,213.375 285,231.6719 270,231.6719 L260,231.6719 " fill="none" style="stroke:#A80036;stroke-width:1.0;"/><text fill="#000000" font-family="sans-serif" font-size="14" font-weight="bold" lengthAdjust="spacing" textLength="112" x="145" y="254.8154">MATERIALIZED</text><path d="M310,213.375 L300,213.375 C285,213.375 285,249.9688 270,249.9688 L260,249.9688 " fill="none" style="stroke:#A80036;stroke-width:1.0;"/><path d="M459,315.4141 L449,315.4141 C434,315.4141 434,213.375 419,213.375 L409,213.375 " fill="none" style="stroke:#A80036;stroke-width:1.0;"/><rect fill="#FEFECE" filter="url(#fv1cmf50mpwtd)" height="36.2969" rx="12.5" ry="12.5" style="stroke:#A80036;stroke-width:1.5;" width="50" x="359" y="251.5234"/><text fill="#000000" font-family="sans-serif" font-size="14" lengthAdjust="spacing" textLength="30" x="369" y="274.5186">type</text><path d="M459,315.4141 L449,315.4141 C434,315.4141 434,269.6719 419,269.6719 L409,269.6719 " fill="none" style="stroke:#A80036;stroke-width:1.0;"/><rect fill="#FEFECE" filter="url(#fv1cmf50mpwtd)" height="36.2969" rx="12.5" ry="12.5" style="stroke:#A80036;stroke-width:1.5;" width="54" x="355" y="307.8203"/><text fill="#000000" font-family="sans-serif" font-size="14" lengthAdjust="spacing" textLength="34" x="365" y="330.8154">Extra</text><path d="M459,315.4141 L449,315.4141 C434,315.4141 434,325.9688 419,325.9688 L409,325.9688 " fill="none" style="stroke:#A80036;stroke-width:1.0;"/><text fill="#000000" font-family="sans-serif" font-size="14" lengthAdjust="spacing" textLength="97" x="309" y="368.1123">possible_keys</text><path d="M459,315.4141 L449,315.4141 C434,315.4141 434,363.2656 419,363.2656 L409,363.2656 " fill="none" style="stroke:#A80036;stroke-width:1.0;"/><text fill="#000000" font-family="sans-serif" font-size="14" lengthAdjust="spacing" textLength="24" x="378" y="386.4092">key</text><path d="M459,315.4141 L449,315.4141 C434,315.4141 434,381.5625 419,381.5625 L409,381.5625 " fill="none" style="stroke:#A80036;stroke-width:1.0;"/><text fill="#000000" font-family="sans-serif" font-size="14" lengthAdjust="spacing" textLength="177" x="229" y="404.7061">key_len: 使用的 key 的长度</text><path d="M459,315.4141 L449,315.4141 C434,315.4141 434,399.8594 419,399.8594 L409,399.8594 " fill="none" style="stroke:#A80036;stroke-width:1.0;"/><text fill="#000000" font-family="sans-serif" font-size="14" lengthAdjust="spacing" textLength="33" x="373" y="423.0029">rows</text><path d="M459,315.4141 L449,315.4141 C434,315.4141 434,418.1563 419,418.1563 L409,418.1563 " fill="none" style="stroke:#A80036;stroke-width:1.0;"/><text fill="#000000" font-family="sans-serif" font-size="14" lengthAdjust="spacing" textLength="38" x="368" y="441.2998">filterd</text><path d="M459,315.4141 L449,315.4141 C434,315.4141 434,436.4531 419,436.4531 L409,436.4531 " fill="none" style="stroke:#A80036;stroke-width:1.0;"/><text fill="#000000" font-family="sans-serif" font-size="14" lengthAdjust="spacing" textLength="34" x="372" y="459.5967">extra</text><path d="M459,315.4141 L449,315.4141 C434,315.4141 434,454.75 419,454.75 L409,454.75 " fill="none" style="stroke:#A80036;stroke-width:1.0;"/><path d="M577,321.043 L567,321.043 C552,321.043 552,315.4141 537,315.4141 L527,315.4141 " fill="none" style="stroke:#A80036;stroke-width:1.0;"/><rect fill="#FEFECE" filter="url(#fv1cmf50mpwtd)" height="36.2969" rx="12.5" ry="12.5" style="stroke:#A80036;stroke-width:1.5;" width="48" x="479" y="492.1953"/><text fill="#000000" font-family="sans-serif" font-size="14" lengthAdjust="spacing" textLength="28" x="489" y="515.1904">索引</text><rect fill="#FEFECE" filter="url(#fv1cmf50mpwtd)" height="36.2969" rx="12.5" ry="12.5" style="stroke:#A80036;stroke-width:1.5;" width="48" x="381" y="473.8984"/><text fill="#000000" font-family="sans-serif" font-size="14" lengthAdjust="spacing" textLength="28" x="391" y="496.8936">种类</text><text fill="#000000" font-family="sans-serif" font-size="14" lengthAdjust="spacing" textLength="56" x="272" y="478.5967">聚簇索引</text><path d="M381,492.0469 L371,492.0469 C356,492.0469 356,473.75 341,473.75 L331,473.75 " fill="none" style="stroke:#A80036;stroke-width:1.0;"/><text fill="#000000" font-family="sans-serif" font-size="14" lengthAdjust="spacing" textLength="56" x="272" y="496.8936">二级索引</text><path d="M381,492.0469 L371,492.0469 C356,492.0469 356,492.0469 341,492.0469 L331,492.0469 " fill="none" style="stroke:#A80036;stroke-width:1.0;"/><text fill="#000000" font-family="sans-serif" font-size="14" lengthAdjust="spacing" textLength="56" x="272" y="515.1904">覆盖索引</text><path d="M381,492.0469 L371,492.0469 C356,492.0469 356,510.3438 341,510.3438 L331,510.3438 " fill="none" style="stroke:#A80036;stroke-width:1.0;"/><path d="M479,510.3438 L469,510.3438 C454,510.3438 454,492.0469 439,492.0469 L429,492.0469 " fill="none" style="stroke:#A80036;stroke-width:1.0;"/><text fill="#000000" font-family="sans-serif" font-size="14" lengthAdjust="spacing" textLength="168" x="258" y="534.1904">自动生成的主键有什么问题</text><path d="M479,510.3438 L469,510.3438 C454,510.3438 454,529.3438 439,529.3438 L429,529.3438 " fill="none" style="stroke:#A80036;stroke-width:1.0;"/><text fill="#000000" font-family="sans-serif" font-size="14" lengthAdjust="spacing" textLength="112" x="314" y="552.4873">什么情况索引失效</text><path d="M479,510.3438 L469,510.3438 C454,510.3438 454,547.6406 439,547.6406 L429,547.6406 " fill="none" style="stroke:#A80036;stroke-width:1.0;"/><path d="M577,321.043 L567,321.043 C552,321.043 552,510.3438 537,510.3438 L527,510.3438 " fill="none" style="stroke:#A80036;stroke-width:1.0;"/><rect fill="#FEFECE" filter="url(#fv1cmf50mpwtd)" height="36.2969" rx="12.5" ry="12.5" style="stroke:#A80036;stroke-width:1.5;" width="48" x="479" y="556.9375"/><text fill="#000000" font-family="sans-serif" font-size="14" lengthAdjust="spacing" textLength="28" x="489" y="579.9326">运维</text><text fill="#000000" font-family="sans-serif" font-size="14" lengthAdjust="spacing" textLength="238" x="188" y="570.7842">一张大表怎么更改表的数据结构，字段</text><path d="M479,575.0859 L469,575.0859 C454,575.0859 454,565.9375 439,565.9375 L429,565.9375 " fill="none" style="stroke:#A80036;stroke-width:1.0;"/><text fill="#000000" font-family="sans-serif" font-size="14" lengthAdjust="spacing" textLength="124" x="302" y="589.0811">自增id用完了怎么办</text><path d="M479,575.0859 L469,575.0859 C454,575.0859 454,584.2344 439,584.2344 L429,584.2344 " fill="none" style="stroke:#A80036;stroke-width:1.0;"/><path d="M577,321.043 L567,321.043 C552,321.043 552,575.0859 537,575.0859 L527,575.0859 " fill="none" style="stroke:#A80036;stroke-width:1.0;"/><!--MD5=[0d7dc50213c284b35b6bc00b20a71e4d]
@startmindmap MySQL 脑图


* MySQL

** Log [[https://zhuanlan.zhihu.com/p/58011817 MySQL日志分类及简介]]
***_ 错误日志
***_ 查询日志
***_ 慢查询日志 *
***_ 事务日志(Redo log) *
***_ 二进制日志
***_ 中继日志

** InnoDB
*** 结构 [[https://zhuanlan.zhihu.com/p/235458760 深入剖析InnoDB]]
****_ 缓冲池（Buffer Pool）*
****_ 写缓冲区(Change Buffer) *
****_ 日志缓冲区（log Buffer）*
****_ 自适应 Hash 索引
****_ Double Write Buffer

** ACID
*** Atomicity 中止（abort）
****_ 能够在错误时中止事务，丢弃该事务进行的所有写入变更的能力
****_ 事物

*** Consistency 不变量（invariants）
****_ doublewrite buffer

*** Isolation
****_ 锁
**** 事物隔离级别
' *****_ 读已提交（Read Committed）

*** Durability
****_ doublewrite buffer
****_ 运维

** 隔离级别
***_  READ UNCOMMITTED
***_  READ COMMITTED
***_  REPEATABLE READ
***_  SERIALIZABLE
** MVCC
** 幻读

left side

** 锁
***_ Shared and Exclusive Locks
***_ Intention Locks
***_ Record Locks
***_ Gap Locks *
***_ Next-Key Locks *
***_ Insert Intention Locks
***_ AUTO-INC Locks

** explain
***_ id
*** select_type
****_ **SIMPLE**: 无 union 或 子查询
****_ **PRIMARY**: 最外
****_ **SUBQUERY**: 子查询中第一个 SELECT
****_ **DERIVED**
****_ **MATERIALIZED**

*** type
*** Extra
***_ possible_keys
***_ key 
***_ key_len: 使用的 key 的长度
***_ rows
***_ filterd
***_ extra


** 索引
*** 种类
****_ 聚簇索引
****_ 二级索引
****_ 覆盖索引
***_ 自动生成的主键有什么问题
***_ 什么情况索引失效

** 运维
***_ 一张大表怎么更改表的数据结构，字段
***_ 自增id用完了怎么办

@endmindmap

@startmindmap MySQL 脑图


* MySQL

** Log [[https://zhuanlan.zhihu.com/p/58011817 MySQL日志分类及简介]]
***_ 错误日志
***_ 查询日志
***_ 慢查询日志 *
***_ 事务日志(Redo log) *
***_ 二进制日志
***_ 中继日志

** InnoDB
*** 结构 [[https://zhuanlan.zhihu.com/p/235458760 深入剖析InnoDB]]
****_ 缓冲池（Buffer Pool）*
****_ 写缓冲区(Change Buffer) *
****_ 日志缓冲区（log Buffer）*
****_ 自适应 Hash 索引
****_ Double Write Buffer

** ACID
*** Atomicity 中止（abort）
****_ 能够在错误时中止事务，丢弃该事务进行的所有写入变更的能力
****_ 事物

*** Consistency 不变量（invariants）
****_ doublewrite buffer

*** Isolation
****_ 锁
**** 事物隔离级别

*** Durability
****_ doublewrite buffer
****_ 运维

** 隔离级别
***_  READ UNCOMMITTED
***_  READ COMMITTED
***_  REPEATABLE READ
***_  SERIALIZABLE
** MVCC
** 幻读

left side

** 锁
***_ Shared and Exclusive Locks
***_ Intention Locks
***_ Record Locks
***_ Gap Locks *
***_ Next-Key Locks *
***_ Insert Intention Locks
***_ AUTO-INC Locks

** explain
***_ id
*** select_type
****_ **SIMPLE**: 无 union 或 子查询
****_ **PRIMARY**: 最外
****_ **SUBQUERY**: 子查询中第一个 SELECT
****_ **DERIVED**
****_ **MATERIALIZED**

*** type
*** Extra
***_ possible_keys
***_ key 
***_ key_len: 使用的 key 的长度
***_ rows
***_ filterd
***_ extra


** 索引
*** 种类
****_ 聚簇索引
****_ 二级索引
****_ 覆盖索引
***_ 自动生成的主键有什么问题
***_ 什么情况索引失效

** 运维
***_ 一张大表怎么更改表的数据结构，字段
***_ 自增id用完了怎么办

@endmindmap

PlantUML version 1.2021.6(Fri May 14 07:09:51 UTC 2021)
(GPL source distribution)
Java Runtime: OpenJDK Runtime Environment
JVM: OpenJDK 64-Bit Server VM
Default Encoding: UTF-8
Language: en
Country: null
--></g></svg>