<?xml version="1.0" encoding="UTF-8" standalone="no"?><svg xmlns="http://www.w3.org/2000/svg" xmlns:xlink="http://www.w3.org/1999/xlink" contentScriptType="application/ecmascript" contentStyleType="text/css" height="309px" preserveAspectRatio="none" style="width:710px;height:309px;background:#FFFFFF;" version="1.1" viewBox="0 0 710 309" width="710px" zoomAndPan="magnify"><defs><filter height="300%" id="ftxuvdgmm1i53" width="300%" x="-1" y="-1"><feGaussianBlur result="blurOut" stdDeviation="2.0"/><feColorMatrix in="blurOut" result="blurOut2" type="matrix" values="0 0 0 0 0 0 0 0 0 0 0 0 0 0 0 0 0 0 .4 0"/><feOffset dx="4.0" dy="4.0" in="blurOut2" result="blurOut3"/><feBlend in="SourceGraphic" in2="blurOut3" mode="normal"/></filter></defs><g><rect fill="#FEFECE" filter="url(#ftxuvdgmm1i53)" height="36.2969" rx="12.5" ry="12.5" style="stroke:#A80036;stroke-width:1.5;" width="77" x="10" y="135.4102"/><text fill="#000000" font-family="sans-serif" font-size="14" lengthAdjust="spacing" textLength="57" x="20" y="158.4053">Network</text><rect fill="#FEFECE" filter="url(#ftxuvdgmm1i53)" height="36.2969" rx="12.5" ry="12.5" style="stroke:#A80036;stroke-width:1.5;" width="74" x="137" y="38.2969"/><text fill="#000000" font-family="sans-serif" font-size="14" lengthAdjust="spacing" textLength="54" x="147" y="61.292">tcp/udp</text><rect fill="#FEFECE" filter="url(#ftxuvdgmm1i53)" height="36.2969" rx="12.5" ry="12.5" style="stroke:#A80036;stroke-width:1.5;" width="102" x="261" y="20"/><text fill="#000000" font-family="sans-serif" font-size="14" lengthAdjust="spacing" textLength="82" x="271" y="42.9951">tcp 三次握手</text><text fill="#000000" font-family="sans-serif" font-size="14" lengthAdjust="spacing" textLength="28" x="416" y="24.6982">流程</text><path d="M363,38.1484 L373,38.1484 C388,38.1484 388,19.8516 403,19.8516 L413,19.8516 " fill="none" style="stroke:#A80036;stroke-width:1.0;"/><text fill="#000000" font-family="sans-serif" font-size="14" lengthAdjust="spacing" textLength="92" x="416" y="42.9951">time_wait状态</text><path d="M363,38.1484 L373,38.1484 C388,38.1484 388,38.1484 403,38.1484 L413,38.1484 " fill="none" style="stroke:#A80036;stroke-width:1.0;"/><a href="https://www.zhihu.com/question/361111920/answer/1199952447" target="_top" title="https://www.zhihu.com/question/361111920/answer/1199952447" xlink:actuate="onRequest" xlink:href="https://www.zhihu.com/question/361111920/answer/1199952447" xlink:show="new" xlink:title="https://www.zhihu.com/question/361111920/answer/1199952447" xlink:type="simple"><text fill="#0000FF" font-family="sans-serif" font-size="14" lengthAdjust="spacing" text-decoration="underline" textLength="52" x="416" y="61.292">65535?</text></a><text fill="#000000" font-family="sans-serif" font-size="14" lengthAdjust="spacing" textLength="151" x="472" y="61.292">最多建立多少个连接？ *</text><path d="M363,38.1484 L373,38.1484 C388,38.1484 388,56.4453 403,56.4453 L413,56.4453 " fill="none" style="stroke:#A80036;stroke-width:1.0;"/><path d="M211,56.4453 L221,56.4453 C236,56.4453 236,38.1484 251,38.1484 L261,38.1484 " fill="none" style="stroke:#A80036;stroke-width:1.0;"/><text fill="#000000" font-family="sans-serif" font-size="14" lengthAdjust="spacing" textLength="95" x="264" y="80.292">tcp、udp 区别</text><path d="M211,56.4453 L221,56.4453 C236,56.4453 236,75.4453 251,75.4453 L261,75.4453 " fill="none" style="stroke:#A80036;stroke-width:1.0;"/><text fill="#000000" font-family="sans-serif" font-size="14" lengthAdjust="spacing" textLength="123" x="264" y="98.5889">tcp、udp 报文结构</text><path d="M211,56.4453 L221,56.4453 C236,56.4453 236,93.7422 251,93.7422 L261,93.7422 " fill="none" style="stroke:#A80036;stroke-width:1.0;"/><path d="M87,153.5586 L97,153.5586 C112,153.5586 112,56.4453 127,56.4453 L137,56.4453 " fill="none" style="stroke:#A80036;stroke-width:1.0;"/><rect fill="#FEFECE" filter="url(#ftxuvdgmm1i53)" height="36.2969" rx="12.5" ry="12.5" style="stroke:#A80036;stroke-width:1.5;" width="48" x="137" y="145.2617"/><text fill="#000000" font-family="sans-serif" font-size="14" lengthAdjust="spacing" textLength="28" x="147" y="168.2568">http</text><rect fill="#FEFECE" filter="url(#ftxuvdgmm1i53)" height="36.2969" rx="12.5" ry="12.5" style="stroke:#A80036;stroke-width:1.5;" width="62" x="235" y="112.8906"/><text fill="#000000" font-family="sans-serif" font-size="14" lengthAdjust="spacing" textLength="42" x="245" y="135.8857">请求头</text><text fill="#000000" font-family="sans-serif" font-size="14" font-weight="bold" lengthAdjust="spacing" textLength="50" x="350" y="126.7373">expire</text><text fill="#000000" font-family="sans-serif" font-size="14" lengthAdjust="spacing" textLength="298" x="400" y="126.7373">: 包含日期/时间， 即在此时候之后，响应过期。</text><path d="M297,131.0391 L307,131.0391 C322,131.0391 322,121.8906 337,121.8906 L347,121.8906 " fill="none" style="stroke:#A80036;stroke-width:1.0;"/><text fill="#000000" font-family="sans-serif" font-size="14" font-weight="bold" lengthAdjust="spacing" textLength="109" x="350" y="145.0342">cache-control</text><text fill="#000000" font-family="sans-serif" font-size="14" lengthAdjust="spacing" textLength="93" x="459" y="145.0342">: 实现缓存机制</text><path d="M297,131.0391 L307,131.0391 C322,131.0391 322,140.1875 337,140.1875 L347,140.1875 " fill="none" style="stroke:#A80036;stroke-width:1.0;"/><path d="M185,163.4102 L195,163.4102 C210,163.4102 210,131.0391 225,131.0391 L235,131.0391 " fill="none" style="stroke:#A80036;stroke-width:1.0;"/><rect fill="#FEFECE" filter="url(#ftxuvdgmm1i53)" height="36.2969" rx="12.5" ry="12.5" style="stroke:#A80036;stroke-width:1.5;" width="62" x="235" y="169.1875"/><text fill="#000000" font-family="sans-serif" font-size="14" lengthAdjust="spacing" textLength="42" x="245" y="192.1826">状态码</text><text fill="#000000" font-family="sans-serif" font-size="14" font-weight="bold" lengthAdjust="spacing" textLength="30" x="350" y="164.7373">301</text><text fill="#000000" font-family="sans-serif" font-size="14" lengthAdjust="spacing" textLength="265" x="384" y="164.7373">永久重定向到由 Location 头部指定的url上</text><path d="M297,187.3359 L307,187.3359 C322,187.3359 322,159.8906 337,159.8906 L347,159.8906 " fill="none" style="stroke:#A80036;stroke-width:1.0;"/><text fill="#000000" font-family="sans-serif" font-size="14" font-weight="bold" lengthAdjust="spacing" textLength="30" x="350" y="183.0342">302</text><text fill="#000000" font-family="sans-serif" font-size="14" lengthAdjust="spacing" textLength="293" x="384" y="183.0342">暂时的移动到了由Location 头部指定的 URL 上</text><path d="M297,187.3359 L307,187.3359 C322,187.3359 322,178.1875 337,178.1875 L347,178.1875 " fill="none" style="stroke:#A80036;stroke-width:1.0;"/><text fill="#000000" font-family="sans-serif" font-size="14" font-weight="bold" lengthAdjust="spacing" textLength="30" x="350" y="201.3311">401</text><text fill="#000000" font-family="sans-serif" font-size="14" lengthAdjust="spacing" textLength="238" x="384" y="201.3311">由于缺乏目标资源要求的身份验证凭证</text><path d="M297,187.3359 L307,187.3359 C322,187.3359 322,196.4844 337,196.4844 L347,196.4844 " fill="none" style="stroke:#A80036;stroke-width:1.0;"/><text fill="#000000" font-family="sans-serif" font-size="14" font-weight="bold" lengthAdjust="spacing" textLength="30" x="350" y="219.6279">403</text><text fill="#000000" font-family="sans-serif" font-size="14" lengthAdjust="spacing" textLength="294" x="384" y="219.6279">服务器端有能力处理该请求，但是拒绝授权访问</text><path d="M297,187.3359 L307,187.3359 C322,187.3359 322,214.7813 337,214.7813 L347,214.7813 " fill="none" style="stroke:#A80036;stroke-width:1.0;"/><path d="M185,163.4102 L195,163.4102 C210,163.4102 210,187.3359 225,187.3359 L235,187.3359 " fill="none" style="stroke:#A80036;stroke-width:1.0;"/><path d="M87,153.5586 L97,153.5586 C112,153.5586 112,163.4102 127,163.4102 L137,163.4102 " fill="none" style="stroke:#A80036;stroke-width:1.0;"/><rect fill="#FEFECE" filter="url(#ftxuvdgmm1i53)" height="36.2969" rx="12.5" ry="12.5" style="stroke:#A80036;stroke-width:1.5;" width="56" x="137" y="242.375"/><text fill="#000000" font-family="sans-serif" font-size="14" lengthAdjust="spacing" textLength="36" x="147" y="265.3701">https</text><text fill="#000000" font-family="sans-serif" font-size="14" lengthAdjust="spacing" textLength="28" x="246" y="237.9248">原理</text><path d="M193,260.5234 L203,260.5234 C218,260.5234 218,233.0781 233,233.0781 L243,233.0781 " fill="none" style="stroke:#A80036;stroke-width:1.0;"/><text fill="#000000" font-family="sans-serif" font-size="14" lengthAdjust="spacing" textLength="56" x="246" y="256.2217">数字签名</text><path d="M193,260.5234 L203,260.5234 C218,260.5234 218,251.375 233,251.375 L243,251.375 " fill="none" style="stroke:#A80036;stroke-width:1.0;"/><text fill="#000000" font-family="sans-serif" font-size="14" lengthAdjust="spacing" textLength="56" x="246" y="274.5186">数字证书</text><path d="M193,260.5234 L203,260.5234 C218,260.5234 218,269.6719 233,269.6719 L243,269.6719 " fill="none" style="stroke:#A80036;stroke-width:1.0;"/><text fill="#000000" font-family="sans-serif" font-size="14" lengthAdjust="spacing" textLength="98" x="246" y="292.8154">非对称加密算法</text><path d="M193,260.5234 L203,260.5234 C218,260.5234 218,287.9688 233,287.9688 L243,287.9688 " fill="none" style="stroke:#A80036;stroke-width:1.0;"/><path d="M87,153.5586 L97,153.5586 C112,153.5586 112,260.5234 127,260.5234 L137,260.5234 " fill="none" style="stroke:#A80036;stroke-width:1.0;"/><!--MD5=[2036ea5603735f2c62ebbcc53aa5c12b]
@startmindmap
* Network
** tcp/udp
*** tcp 三次握手
****_ 流程
****_ time_wait状态
****_ [[https://www.zhihu.com/question/361111920/answer/1199952447 65535?]] 最多建立多少个连接？ *
***_ tcp、udp 区别
***_ tcp、udp 报文结构


** http
*** 请求头
****_ **expire**: 包含日期/时间， 即在此时候之后，响应过期。
****_ **cache-control**: 实现缓存机制
*** 状态码
****_ **301** 永久重定向到由 Location 头部指定的url上
****_ **302** 暂时的移动到了由Location 头部指定的 URL 上
****_ **401** 由于缺乏目标资源要求的身份验证凭证
****_ **403** 服务器端有能力处理该请求，但是拒绝授权访问
** https
***_ 原理
***_ 数字签名
***_ 数字证书
***_ 非对称加密算法
@endmindmap

PlantUML version 1.2021.6(Fri May 14 07:09:51 UTC 2021)
(GPL source distribution)
Java Runtime: OpenJDK Runtime Environment
JVM: OpenJDK 64-Bit Server VM
Default Encoding: UTF-8
Language: en
Country: null
--></g></svg>