<?xml version="1.0" encoding="UTF-8" standalone="no"?><svg xmlns="http://www.w3.org/2000/svg" xmlns:xlink="http://www.w3.org/1999/xlink" contentScriptType="application/ecmascript" contentStyleType="text/css" height="820px" preserveAspectRatio="none" style="width:502px;height:820px;background:#FFFFFF;" version="1.1" viewBox="0 0 502 820" width="502px" zoomAndPan="magnify"><defs><filter height="300%" id="ffjbepd0x6tsf" width="300%" x="-1" y="-1"><feGaussianBlur result="blurOut" stdDeviation="2.0"/><feColorMatrix in="blurOut" result="blurOut2" type="matrix" values="0 0 0 0 0 0 0 0 0 0 0 0 0 0 0 0 0 0 .4 0"/><feOffset dx="4.0" dy="4.0" in="blurOut2" result="blurOut3"/><feBlend in="SourceGraphic" in2="blurOut3" mode="normal"/></filter></defs><g><rect fill="#FEFECE" filter="url(#ffjbepd0x6tsf)" height="36.2969" rx="12.5" ry="12.5" style="stroke:#A80036;stroke-width:1.5;" width="59" x="10" y="391.2109"/><text fill="#000000" font-family="sans-serif" font-size="14" lengthAdjust="spacing" textLength="39" x="20" y="414.2061">Redis</text><rect fill="#FEFECE" filter="url(#ffjbepd0x6tsf)" height="36.2969" rx="12.5" ry="12.5" style="stroke:#A80036;stroke-width:1.5;" width="76" x="119" y="104.4453"/><text fill="#000000" font-family="sans-serif" font-size="14" lengthAdjust="spacing" textLength="56" x="129" y="127.4404">数据结构</text><rect fill="#FEFECE" filter="url(#ffjbepd0x6tsf)" height="36.2969" rx="12.5" ry="12.5" style="stroke:#A80036;stroke-width:1.5;" width="55" x="245" y="20"/><text fill="#000000" font-family="sans-serif" font-size="14" lengthAdjust="spacing" textLength="35" x="255" y="42.9951">Hash</text><text fill="#000000" font-family="sans-serif" font-size="14" lengthAdjust="spacing" textLength="48" x="353" y="33.8467">rehash</text><path d="M300,38.1484 L310,38.1484 C325,38.1484 325,29 340,29 L350,29 " fill="none" style="stroke:#A80036;stroke-width:1.0;"/><text fill="#000000" font-family="sans-serif" font-size="14" lengthAdjust="spacing" textLength="56" x="353" y="52.1436">负载因子</text><path d="M300,38.1484 L310,38.1484 C325,38.1484 325,47.2969 340,47.2969 L350,47.2969 " fill="none" style="stroke:#A80036;stroke-width:1.0;"/><path d="M195,122.5938 L205,122.5938 C220,122.5938 220,38.1484 235,38.1484 L245,38.1484 " fill="none" style="stroke:#A80036;stroke-width:1.0;"/><rect fill="#FEFECE" filter="url(#ffjbepd0x6tsf)" height="36.2969" rx="12.5" ry="12.5" style="stroke:#A80036;stroke-width:1.5;" width="93" x="245" y="76.2969"/><text fill="#000000" font-family="sans-serif" font-size="14" lengthAdjust="spacing" textLength="73" x="255" y="99.292">Sorted Set</text><text fill="#000000" font-family="sans-serif" font-size="14" lengthAdjust="spacing" textLength="47" x="391" y="90.1436">skiplist</text><path d="M338,94.4453 L348,94.4453 C363,94.4453 363,85.2969 378,85.2969 L388,85.2969 " fill="none" style="stroke:#A80036;stroke-width:1.0;"/><text fill="#000000" font-family="sans-serif" font-size="14" lengthAdjust="spacing" textLength="28" x="391" y="108.4404">用途</text><path d="M338,94.4453 L348,94.4453 C363,94.4453 363,103.5938 378,103.5938 L388,103.5938 " fill="none" style="stroke:#A80036;stroke-width:1.0;"/><path d="M195,122.5938 L205,122.5938 C220,122.5938 220,94.4453 235,94.4453 L245,94.4453 " fill="none" style="stroke:#A80036;stroke-width:1.0;"/><rect fill="#FEFECE" filter="url(#ffjbepd0x6tsf)" height="36.2969" rx="12.5" ry="12.5" style="stroke:#A80036;stroke-width:1.5;" width="60" x="245" y="132.5938"/><text fill="#000000" font-family="sans-serif" font-size="14" lengthAdjust="spacing" textLength="40" x="255" y="155.5889">String</text><text fill="#000000" font-family="sans-serif" font-size="14" lengthAdjust="spacing" textLength="66" x="358" y="155.5889">SDS vs. C</text><path d="M305,150.7422 L315,150.7422 C330,150.7422 330,150.7422 345,150.7422 L355,150.7422 " fill="none" style="stroke:#A80036;stroke-width:1.0;"/><path d="M195,122.5938 L205,122.5938 C220,122.5938 220,150.7422 235,150.7422 L245,150.7422 " fill="none" style="stroke:#A80036;stroke-width:1.0;"/><rect fill="#FEFECE" filter="url(#ffjbepd0x6tsf)" height="36.2969" rx="12.5" ry="12.5" style="stroke:#A80036;stroke-width:1.5;" width="101" x="245" y="188.8906"/><text fill="#000000" font-family="sans-serif" font-size="14" lengthAdjust="spacing" textLength="81" x="255" y="211.8857">hyperloglog</text><text fill="#000000" font-family="sans-serif" font-size="14" lengthAdjust="spacing" textLength="42" x="399" y="211.8857">优缺点</text><path d="M346,207.0391 L356,207.0391 C371,207.0391 371,207.0391 386,207.0391 L396,207.0391 " fill="none" style="stroke:#A80036;stroke-width:1.0;"/><path d="M195,122.5938 L205,122.5938 C220,122.5938 220,207.0391 235,207.0391 L245,207.0391 " fill="none" style="stroke:#A80036;stroke-width:1.0;"/><path d="M69,409.3594 L79,409.3594 C94,409.3594 94,122.5938 109,122.5938 L119,122.5938 " fill="none" style="stroke:#A80036;stroke-width:1.0;"/><rect fill="#FEFECE" filter="url(#ffjbepd0x6tsf)" height="36.2969" rx="12.5" ry="12.5" style="stroke:#A80036;stroke-width:1.5;" width="48" x="119" y="291.6328"/><text fill="#000000" font-family="sans-serif" font-size="14" lengthAdjust="spacing" textLength="28" x="129" y="314.6279">集群</text><rect fill="#FEFECE" filter="url(#ffjbepd0x6tsf)" height="36.2969" rx="12.5" ry="12.5" style="stroke:#A80036;stroke-width:1.5;" width="67" x="217" y="245.1875"/><text fill="#000000" font-family="sans-serif" font-size="14" lengthAdjust="spacing" textLength="47" x="227" y="268.1826">cluster</text><text fill="#000000" font-family="sans-serif" font-size="14" lengthAdjust="spacing" textLength="81" x="337" y="259.0342">16384 slot?</text><path d="M284,263.3359 L294,263.3359 C309,263.3359 309,254.1875 324,254.1875 L334,254.1875 " fill="none" style="stroke:#A80036;stroke-width:1.0;"/><text fill="#000000" font-family="sans-serif" font-size="14" lengthAdjust="spacing" textLength="28" x="337" y="277.3311">原理</text><path d="M284,263.3359 L294,263.3359 C309,263.3359 309,272.4844 324,272.4844 L334,272.4844 " fill="none" style="stroke:#A80036;stroke-width:1.0;"/><path d="M167,309.7813 L177,309.7813 C192,309.7813 192,263.3359 207,263.3359 L217,263.3359 " fill="none" style="stroke:#A80036;stroke-width:1.0;"/><rect fill="#FEFECE" filter="url(#ffjbepd0x6tsf)" height="36.2969" rx="12.5" ry="12.5" style="stroke:#A80036;stroke-width:1.5;" width="75" x="217" y="301.4844"/><text fill="#000000" font-family="sans-serif" font-size="14" lengthAdjust="spacing" textLength="55" x="227" y="324.4795">sentinel</text><text fill="#000000" font-family="sans-serif" font-size="14" lengthAdjust="spacing" textLength="56" x="345" y="306.1826">选举过程</text><path d="M292,319.6328 L302,319.6328 C317,319.6328 317,301.3359 332,301.3359 L342,301.3359 " fill="none" style="stroke:#A80036;stroke-width:1.0;"/><text fill="#000000" font-family="sans-serif" font-size="14" lengthAdjust="spacing" textLength="28" x="345" y="324.4795">脑裂</text><path d="M292,319.6328 L302,319.6328 C317,319.6328 317,319.6328 332,319.6328 L342,319.6328 " fill="none" style="stroke:#A80036;stroke-width:1.0;"/><text fill="#000000" font-family="sans-serif" font-size="14" lengthAdjust="spacing" textLength="29" x="345" y="342.7764">raft?</text><path d="M292,319.6328 L302,319.6328 C317,319.6328 317,337.9297 332,337.9297 L342,337.9297 " fill="none" style="stroke:#A80036;stroke-width:1.0;"/><path d="M167,309.7813 L177,309.7813 C192,309.7813 192,319.6328 207,319.6328 L217,319.6328 " fill="none" style="stroke:#A80036;stroke-width:1.0;"/><text fill="#000000" font-family="sans-serif" font-size="14" lengthAdjust="spacing" textLength="56" x="220" y="361.7764">如何扩容</text><path d="M167,309.7813 L177,309.7813 C192,309.7813 192,356.9297 207,356.9297 L217,356.9297 " fill="none" style="stroke:#A80036;stroke-width:1.0;"/><text fill="#000000" font-family="sans-serif" font-size="14" lengthAdjust="spacing" textLength="140" x="220" y="380.0732">各个节点间怎么通信的</text><path d="M167,309.7813 L177,309.7813 C192,309.7813 192,375.2266 207,375.2266 L217,375.2266 " fill="none" style="stroke:#A80036;stroke-width:1.0;"/><path d="M69,409.3594 L79,409.3594 C94,409.3594 94,309.7813 109,309.7813 L119,309.7813 " fill="none" style="stroke:#A80036;stroke-width:1.0;"/><rect fill="#FEFECE" filter="url(#ffjbepd0x6tsf)" height="36.2969" rx="12.5" ry="12.5" style="stroke:#A80036;stroke-width:1.5;" width="62" x="119" y="411.9688"/><text fill="#000000" font-family="sans-serif" font-size="14" lengthAdjust="spacing" textLength="42" x="129" y="434.9639">可用性</text><text fill="#000000" font-family="sans-serif" font-size="14" lengthAdjust="spacing" textLength="98" x="234" y="398.3701">与数据库一致性</text><path d="M181,430.1172 L191,430.1172 C206,430.1172 206,393.5234 221,393.5234 L231,393.5234 " fill="none" style="stroke:#A80036;stroke-width:1.0;"/><text fill="#000000" font-family="sans-serif" font-size="14" lengthAdjust="spacing" textLength="162" x="234" y="416.667">缓存雪崩 多 key 集体失效</text><path d="M181,430.1172 L191,430.1172 C206,430.1172 206,411.8203 221,411.8203 L231,411.8203 " fill="none" style="stroke:#A80036;stroke-width:1.0;"/><text fill="#000000" font-family="sans-serif" font-size="14" lengthAdjust="spacing" textLength="176" x="234" y="434.9639">缓存击穿 单热点 key 失效，</text><path d="M181,430.1172 L191,430.1172 C206,430.1172 206,430.1172 221,430.1172 L231,430.1172 " fill="none" style="stroke:#A80036;stroke-width:1.0;"/><text fill="#000000" font-family="sans-serif" font-size="14" lengthAdjust="spacing" textLength="256" x="234" y="453.2607">缓存穿透，猛攻 key 不存在，布隆过滤器</text><path d="M181,430.1172 L191,430.1172 C206,430.1172 206,448.4141 221,448.4141 L231,448.4141 " fill="none" style="stroke:#A80036;stroke-width:1.0;"/><text fill="#000000" font-family="sans-serif" font-size="14" lengthAdjust="spacing" textLength="200" x="234" y="471.5576">怎么保证redis和mysql的一致性</text><path d="M181,430.1172 L191,430.1172 C206,430.1172 206,466.7109 221,466.7109 L231,466.7109 " fill="none" style="stroke:#A80036;stroke-width:1.0;"/><path d="M69,409.3594 L79,409.3594 C94,409.3594 94,430.1172 109,430.1172 L119,430.1172 " fill="none" style="stroke:#A80036;stroke-width:1.0;"/><rect fill="#FEFECE" filter="url(#ffjbepd0x6tsf)" height="36.2969" rx="12.5" ry="12.5" style="stroke:#A80036;stroke-width:1.5;" width="76" x="119" y="494.3047"/><text fill="#000000" font-family="sans-serif" font-size="14" lengthAdjust="spacing" textLength="56" x="129" y="517.2998">分布式锁</text><text fill="#000000" font-family="sans-serif" font-size="14" lengthAdjust="spacing" textLength="56" x="248" y="489.8545">实现方法</text><path d="M195,512.4531 L205,512.4531 C220,512.4531 220,485.0078 235,485.0078 L245,485.0078 " fill="none" style="stroke:#A80036;stroke-width:1.0;"/><text fill="#000000" font-family="sans-serif" font-size="14" lengthAdjust="spacing" textLength="98" x="248" y="508.1514">过期时间的制定</text><path d="M195,512.4531 L205,512.4531 C220,512.4531 220,503.3047 235,503.3047 L245,503.3047 " fill="none" style="stroke:#A80036;stroke-width:1.0;"/><text fill="#000000" font-family="sans-serif" font-size="14" lengthAdjust="spacing" textLength="28" x="248" y="526.4482">续锁</text><path d="M195,512.4531 L205,512.4531 C220,512.4531 220,521.6016 235,521.6016 L245,521.6016 " fill="none" style="stroke:#A80036;stroke-width:1.0;"/><text fill="#000000" font-family="sans-serif" font-size="14" lengthAdjust="spacing" textLength="60" x="248" y="544.7451">RedLock</text><path d="M195,512.4531 L205,512.4531 C220,512.4531 220,539.8984 235,539.8984 L245,539.8984 " fill="none" style="stroke:#A80036;stroke-width:1.0;"/><path d="M69,409.3594 L79,409.3594 C94,409.3594 94,512.4531 109,512.4531 L119,512.4531 " fill="none" style="stroke:#A80036;stroke-width:1.0;"/><rect fill="#FEFECE" filter="url(#ffjbepd0x6tsf)" height="36.2969" rx="12.5" ry="12.5" style="stroke:#A80036;stroke-width:1.5;" width="76" x="119" y="558.3438"/><text fill="#000000" font-family="sans-serif" font-size="14" lengthAdjust="spacing" textLength="56" x="129" y="581.3389">线程模型</text><text fill="#000000" font-family="sans-serif" font-size="14" lengthAdjust="spacing" textLength="33" x="248" y="563.042">epoll</text><path d="M195,576.4922 L205,576.4922 C220,576.4922 220,558.1953 235,558.1953 L245,558.1953 " fill="none" style="stroke:#A80036;stroke-width:1.0;"/><text fill="#000000" font-family="sans-serif" font-size="14" lengthAdjust="spacing" textLength="98" x="248" y="581.3389">单线程的优缺点</text><path d="M195,576.4922 L205,576.4922 C220,576.4922 220,576.4922 235,576.4922 L245,576.4922 " fill="none" style="stroke:#A80036;stroke-width:1.0;"/><text fill="#000000" font-family="sans-serif" font-size="14" lengthAdjust="spacing" textLength="210" x="248" y="599.6357">什么情况下会出现阻塞，怎么解决</text><path d="M195,576.4922 L205,576.4922 C220,576.4922 220,594.7891 235,594.7891 L245,594.7891 " fill="none" style="stroke:#A80036;stroke-width:1.0;"/><path d="M69,409.3594 L79,409.3594 C94,409.3594 94,576.4922 109,576.4922 L119,576.4922 " fill="none" style="stroke:#A80036;stroke-width:1.0;"/><rect fill="#FEFECE" filter="url(#ffjbepd0x6tsf)" height="36.2969" rx="12.5" ry="12.5" style="stroke:#A80036;stroke-width:1.5;" width="62" x="119" y="651.9375"/><text fill="#000000" font-family="sans-serif" font-size="14" lengthAdjust="spacing" textLength="42" x="129" y="674.9326">持久化</text><rect fill="#FEFECE" filter="url(#ffjbepd0x6tsf)" height="36.2969" rx="12.5" ry="12.5" style="stroke:#A80036;stroke-width:1.5;" width="48" x="231" y="614.6406"/><text fill="#000000" font-family="sans-serif" font-size="14" lengthAdjust="spacing" textLength="28" x="241" y="637.6357">AOF</text><text fill="#000000" font-family="sans-serif" font-size="14" lengthAdjust="spacing" textLength="42" x="332" y="628.4873">阻塞？</text><path d="M279,632.7891 L289,632.7891 C304,632.7891 304,623.6406 319,623.6406 L329,623.6406 " fill="none" style="stroke:#A80036;stroke-width:1.0;"/><text fill="#000000" font-family="sans-serif" font-size="14" lengthAdjust="spacing" textLength="84" x="332" y="646.7842">什么时候使用</text><path d="M279,632.7891 L289,632.7891 C304,632.7891 304,641.9375 319,641.9375 L329,641.9375 " fill="none" style="stroke:#A80036;stroke-width:1.0;"/><path d="M181,670.0859 L191,670.0859 C206,670.0859 206,632.7891 221,632.7891 L231,632.7891 " fill="none" style="stroke:#A80036;stroke-width:1.0;"/><rect fill="#FEFECE" filter="url(#ffjbepd0x6tsf)" height="36.2969" rx="12.5" ry="12.5" style="stroke:#A80036;stroke-width:1.5;" width="51" x="231" y="670.9375"/><text fill="#000000" font-family="sans-serif" font-size="14" lengthAdjust="spacing" textLength="31" x="241" y="693.9326">RDB</text><path d="M181,670.0859 L191,670.0859 C206,670.0859 206,689.0859 221,689.0859 L231,689.0859 " fill="none" style="stroke:#A80036;stroke-width:1.0;"/><text fill="#000000" font-family="sans-serif" font-size="14" lengthAdjust="spacing" textLength="28" x="234" y="731.2295">用处</text><text fill="#000000" font-family="sans-serif" font-size="14" lengthAdjust="spacing" textLength="84" x="315" y="731.2295">什么时候使用</text><path d="M262,726.3828 L272,726.3828 C287,726.3828 287,726.3828 302,726.3828 L312,726.3828 " fill="none" style="stroke:#A80036;stroke-width:1.0;"/><path d="M181,670.0859 L191,670.0859 C206,670.0859 206,726.3828 221,726.3828 L231,726.3828 " fill="none" style="stroke:#A80036;stroke-width:1.0;"/><path d="M69,409.3594 L79,409.3594 C94,409.3594 94,670.0859 109,670.0859 L119,670.0859 " fill="none" style="stroke:#A80036;stroke-width:1.0;"/><rect fill="#FEFECE" filter="url(#ffjbepd0x6tsf)" height="36.2969" rx="12.5" ry="12.5" style="stroke:#A80036;stroke-width:1.5;" width="48" x="119" y="753.9766"/><text fill="#000000" font-family="sans-serif" font-size="14" lengthAdjust="spacing" textLength="28" x="129" y="776.9717">管道</text><text fill="#000000" font-family="sans-serif" font-size="14" lengthAdjust="spacing" textLength="28" x="220" y="749.5264">用处</text><path d="M167,772.125 L177,772.125 C192,772.125 192,744.6797 207,744.6797 L217,744.6797 " fill="none" style="stroke:#A80036;stroke-width:1.0;"/><text fill="#000000" font-family="sans-serif" font-size="14" lengthAdjust="spacing" textLength="28" x="220" y="767.8232">原理</text><path d="M167,772.125 L177,772.125 C192,772.125 192,762.9766 207,762.9766 L217,762.9766 " fill="none" style="stroke:#A80036;stroke-width:1.0;"/><text fill="#000000" font-family="sans-serif" font-size="14" lengthAdjust="spacing" textLength="56" x="220" y="786.1201">原子性？</text><path d="M167,772.125 L177,772.125 C192,772.125 192,781.2734 207,781.2734 L217,781.2734 " fill="none" style="stroke:#A80036;stroke-width:1.0;"/><text fill="#000000" font-family="sans-serif" font-size="14" lengthAdjust="spacing" textLength="98" x="220" y="804.417">和事务的区别？</text><path d="M167,772.125 L177,772.125 C192,772.125 192,799.5703 207,799.5703 L217,799.5703 " fill="none" style="stroke:#A80036;stroke-width:1.0;"/><path d="M69,409.3594 L79,409.3594 C94,409.3594 94,772.125 109,772.125 L119,772.125 " fill="none" style="stroke:#A80036;stroke-width:1.0;"/><!--MD5=[d2fa637d24b1aa929581d9d3d6c687ba]
@startmindmap
* Redis
** 数据结构
*** Hash
****_ rehash
****_ 负载因子
*** Sorted Set
****_ skiplist
****_ 用途
*** String
****_ SDS vs. C
*** hyperloglog
****_ 优缺点


** 集群
*** cluster
****_ 16384 slot?
****_ 原理

*** sentinel
****_ 选举过程
****_ 脑裂
****_ raft?

***_ 如何扩容
***_ 各个节点间怎么通信的

** 可用性
***_ 与数据库一致性
***_ 缓存雪崩 多 key 集体失效
***_ 缓存击穿 单热点 key 失效，
***_ 缓存穿透，猛攻 key 不存在，布隆过滤器
***_ 怎么保证redis和mysql的一致性

** 分布式锁
***_ 实现方法
***_ 过期时间的制定
***_ 续锁
***_ RedLock

** 线程模型
***_ epoll
***_ 单线程的优缺点
***_ 什么情况下会出现阻塞，怎么解决

** 持久化
*** AOF
****_ 阻塞？
****_ 什么时候使用
*** RDB
***_ 用处
****_ 什么时候使用

** 管道
***_ 用处
***_ 原理
***_ 原子性？
***_ 和事务的区别？

@endmindmap

PlantUML version 1.2021.6(Fri May 14 07:09:51 UTC 2021)
(GPL source distribution)
Java Runtime: OpenJDK Runtime Environment
JVM: OpenJDK 64-Bit Server VM
Default Encoding: UTF-8
Language: en
Country: null
--></g></svg>