<?xml version="1.0" encoding="UTF-8" standalone="no"?><svg xmlns="http://www.w3.org/2000/svg" xmlns:xlink="http://www.w3.org/1999/xlink" contentScriptType="application/ecmascript" contentStyleType="text/css" height="303px" preserveAspectRatio="none" style="width:509px;height:303px;background:#FFFFFF;" version="1.1" viewBox="0 0 509 303" width="509px" zoomAndPan="magnify"><defs><filter height="300%" id="f5teck3ks1442" width="300%" x="-1" y="-1"><feGaussianBlur result="blurOut" stdDeviation="2.0"/><feColorMatrix in="blurOut" result="blurOut2" type="matrix" values="0 0 0 0 0 0 0 0 0 0 0 0 0 0 0 0 0 0 .4 0"/><feOffset dx="4.0" dy="4.0" in="blurOut2" result="blurOut3"/><feBlend in="SourceGraphic" in2="blurOut3" mode="normal"/></filter></defs><g><rect fill="#FEFECE" filter="url(#f5teck3ks1442)" height="36.2969" rx="12.5" ry="12.5" style="stroke:#A80036;stroke-width:1.5;" width="64" x="10" y="132.5938"/><text fill="#000000" font-family="sans-serif" font-size="14" lengthAdjust="spacing" textLength="44" x="20" y="155.5889">Spring</text><rect fill="#FEFECE" filter="url(#f5teck3ks1442)" height="36.2969" rx="12.5" ry="12.5" style="stroke:#A80036;stroke-width:1.5;" width="96" x="124" y="132.5938"/><text fill="#000000" font-family="sans-serif" font-size="14" lengthAdjust="spacing" textLength="76" x="134" y="155.5889">Framework</text><rect fill="#FEFECE" filter="url(#f5teck3ks1442)" height="36.2969" rx="12.5" ry="12.5" style="stroke:#A80036;stroke-width:1.5;" width="76" x="270" y="20"/><text fill="#000000" font-family="sans-serif" font-size="14" lengthAdjust="spacing" textLength="56" x="280" y="42.9951">循环依赖</text><text fill="#000000" font-family="sans-serif" font-size="14" lengthAdjust="spacing" textLength="56" x="399" y="33.8467">怎么解决</text><path d="M346,38.1484 L356,38.1484 C371,38.1484 371,29 386,29 L396,29 " fill="none" style="stroke:#A80036;stroke-width:1.0;"/><text fill="#000000" font-family="sans-serif" font-size="14" lengthAdjust="spacing" textLength="98" x="399" y="52.1436">为何三级缓存？</text><path d="M346,38.1484 L356,38.1484 C371,38.1484 371,47.2969 386,47.2969 L396,47.2969 " fill="none" style="stroke:#A80036;stroke-width:1.0;"/><path d="M220,150.7422 L230,150.7422 C245,150.7422 245,38.1484 260,38.1484 L270,38.1484 " fill="none" style="stroke:#A80036;stroke-width:1.0;"/><rect fill="#FEFECE" filter="url(#f5teck3ks1442)" height="36.2969" rx="12.5" ry="12.5" style="stroke:#A80036;stroke-width:1.5;" width="76" x="270" y="76.2969"/><text fill="#000000" font-family="sans-serif" font-size="14" lengthAdjust="spacing" textLength="56" x="280" y="99.292">生命周期</text><path d="M220,150.7422 L230,150.7422 C245,150.7422 245,94.4453 260,94.4453 L270,94.4453 " fill="none" style="stroke:#A80036;stroke-width:1.0;"/><rect fill="#FEFECE" filter="url(#f5teck3ks1442)" height="36.2969" rx="12.5" ry="12.5" style="stroke:#A80036;stroke-width:1.5;" width="111" x="270" y="132.5938"/><text fill="#000000" font-family="sans-serif" font-size="14" lengthAdjust="spacing" textLength="91" x="280" y="155.5889">bean创建过程</text><path d="M220,150.7422 L230,150.7422 C245,150.7422 245,150.7422 260,150.7422 L270,150.7422 " fill="none" style="stroke:#A80036;stroke-width:1.0;"/><rect fill="#FEFECE" filter="url(#f5teck3ks1442)" height="36.2969" rx="12.5" ry="12.5" style="stroke:#A80036;stroke-width:1.5;" width="118" x="270" y="188.8906"/><text fill="#000000" font-family="sans-serif" font-size="14" lengthAdjust="spacing" textLength="98" x="280" y="211.8857">事务失效及原因</text><path d="M220,150.7422 L230,150.7422 C245,150.7422 245,207.0391 260,207.0391 L270,207.0391 " fill="none" style="stroke:#A80036;stroke-width:1.0;"/><rect fill="#FEFECE" filter="url(#f5teck3ks1442)" height="36.2969" rx="12.5" ry="12.5" style="stroke:#A80036;stroke-width:1.5;" width="90" x="270" y="245.1875"/><text fill="#000000" font-family="sans-serif" font-size="14" lengthAdjust="spacing" textLength="70" x="280" y="268.1826">怎么加载类</text><path d="M220,150.7422 L230,150.7422 C245,150.7422 245,263.3359 260,263.3359 L270,263.3359 " fill="none" style="stroke:#A80036;stroke-width:1.0;"/><path d="M74,150.7422 L84,150.7422 C99,150.7422 99,150.7422 114,150.7422 L124,150.7422 " fill="none" style="stroke:#A80036;stroke-width:1.0;"/><!--MD5=[d6b7cc413b646effdc67d67bc9afae41]
@startmindmap
* Spring
** Framework
*** 循环依赖
****_ 怎么解决
****_ 为何三级缓存？

*** 生命周期
*** bean创建过程
*** 事务失效及原因
*** 怎么加载类
@endmindmap

PlantUML version 1.2021.6(Fri May 14 07:09:51 UTC 2021)
(GPL source distribution)
Java Runtime: OpenJDK Runtime Environment
JVM: OpenJDK 64-Bit Server VM
Default Encoding: UTF-8
Language: en
Country: null
--></g></svg>